<?xml version="1.0" encoding="UTF-8"?>
<svg version="1.1" xmlns="http://www.w3.org/2000/svg" width="533" height="119">
<path d="M0 0 C14.85 0 29.7 0 45 0 C48.66666667 7.33333333 52.33333333 14.66666667 56 22 C56.2673999 21.40461426 56.5347998 20.80922852 56.81030273 20.19580078 C58.01893529 17.505339 59.22820973 14.81516621 60.4375 12.125 C60.85837891 11.18785156 61.27925781 10.25070313 61.71289062 9.28515625 C62.11572266 8.38925781 62.51855469 7.49335937 62.93359375 6.5703125 C63.30540771 5.74289551 63.67722168 4.91547852 64.06030273 4.06298828 C64.68240177 2.69724736 65.32884346 1.34231307 66 0 C73.92 0 81.84 0 90 0 C88.66052495 4.01842516 87.51754608 7.19439886 85.6015625 10.84375 C85.12759033 11.75036377 84.65361816 12.65697754 84.1652832 13.59106445 C83.65698975 14.55101318 83.14869629 15.51096191 82.625 16.5 C82.10059326 17.49797607 81.57618652 18.49595215 81.03588867 19.52416992 C75.8038178 29.44588218 70.43475984 39.29286873 65.0246582 49.1184082 C64.32674349 50.39999711 63.65261858 51.69476283 63 53 C58.38 53 53.76 53 49 53 C42.83167675 42.42573156 37.03222329 31.6689763 31.28100586 20.86425781 C30.96326706 20.26804123 30.64552826 19.67182465 30.31816101 19.05754089 C29.44574157 17.41986894 28.57486924 15.78137308 27.70410156 14.14282227 C25.85518216 10.7329169 23.92447923 7.36783866 22 4 C21.67 20.17 21.34 36.34 21 53 C14.07 53 7.14 53 0 53 C0 35.51 0 18.02 0 0 Z " fill="#FEFDFA" transform="translate(286,34)"/>
<path d="M0 0 C0.33 -0.33 0.66 -0.66 1 -1 C7.93 -1 14.86 -1 22 -1 C22 16.49 22 33.98 22 52 C15.07 52 8.14 52 1 52 C0.67 51.34 0.34 50.68 0 50 C-0.9075 50.495 -1.815 50.99 -2.75 51.5 C-9.12557136 54.22128046 -16.19528623 53.7946689 -22.75 51.9375 C-30.49997277 47.31732393 -36.45028228 41.90040352 -39 33 C-40.02461117 23.6799792 -39.929646 15.26555214 -34.23046875 7.62890625 C-24.86832284 -3.55912662 -13.17180775 -5.74769793 0 0 Z M-17 21 C-17.86936882 25.32376349 -17.79647745 28.72563608 -15.4375 32.5 C-12.16764866 34.51221621 -9.83797545 34.93382801 -6 35 C-1.67606226 33.45204133 -1.67606226 33.45204133 1 30 C1.58492738 25.20359551 2.00314925 21.31663339 -1 17.375 C-7.4652253 14.41177174 -12.85600191 14.65450293 -17 21 Z " fill="#FEFEFC" transform="translate(228,35)"/>
<path d="M0 0 C6.72183372 5.02193197 10.09464747 10.42668305 11.42578125 18.62109375 C12.23114339 25.30656983 12.23114339 25.30656983 11 29 C5.06 29.495 5.06 29.495 -1 30 C2.96 31.98 6.92 33.96 11 36 C8.33758394 42.65604015 4.16309545 46.62333681 -2.06640625 50.1796875 C-9.89587749 53.29959065 -19.46588722 53.45961165 -27.421875 50.8984375 C-36.19141922 46.8190724 -41.67845268 41.42338812 -45.3046875 32.44921875 C-47.36867569 25.17887832 -46.4744417 18.18547123 -43.390625 11.35546875 C-38.98759312 3.89752431 -32.32509626 -1.09345367 -24.08203125 -3.578125 C-15.66443195 -5.28375488 -7.54065421 -4.0612298 0 0 Z M-23 13 C-23 13.66 -23 14.32 -23 15 C-18.71 15 -14.42 15 -10 15 C-10.33 14.01 -10.66 13.02 -11 12 C-17.28851034 10.70383728 -17.28851034 10.70383728 -23 13 Z M-24 28 C-23 30 -23 30 -23 30 Z M-22 29 C-22 30.32 -22 31.64 -22 33 C-18.10635136 35.28829465 -15.43508745 35.14112596 -11.0625 34.55859375 C-8.78259362 34.12474137 -8.78259362 34.12474137 -6.9375 31.9375 C-6.628125 31.298125 -6.31875 30.65875 -6 30 C-7.16277032 28.60843516 -7.16277032 28.60843516 -10.37890625 28.90234375 C-11.77347077 28.90901631 -13.16801743 28.92097468 -14.5625 28.9375 C-15.27341797 28.94201172 -15.98433594 28.94652344 -16.71679688 28.95117188 C-18.47790013 28.96299136 -20.23896036 28.98092737 -22 29 Z " fill="#FEFEFB" transform="translate(476,36)"/>
<path d="M0 0 C5.86892918 6.21416031 8.26582534 11.90003785 8.1875 20.4375 C8.17847656 21.70980469 8.16945313 22.98210938 8.16015625 24.29296875 C8.14855469 25.26878906 8.13695312 26.24460937 8.125 27.25 C2.185 27.745 2.185 27.745 -3.875 28.25 C0.085 30.23 4.045 32.21 8.125 34.25 C5.46258394 40.90604015 1.28809545 44.87333681 -4.94140625 48.4296875 C-12.77087749 51.54959065 -22.34088722 51.70961165 -30.296875 49.1484375 C-38.84530232 45.17193027 -44.26076399 40.00025561 -47.875 31.25 C-50.02678224 23.81657046 -49.4411794 16.10022435 -45.875 9.25 C-40.55774871 1.91176092 -35.10334486 -2.78315425 -26.5 -5.5 C-16.59579468 -6.44325765 -8.64860916 -5.2643708 0 0 Z M-25.875 11.25 C-25.875 11.91 -25.875 12.57 -25.875 13.25 C-21.585 13.25 -17.295 13.25 -12.875 13.25 C-13.205 12.26 -13.535 11.27 -13.875 10.25 C-20.16351034 8.95383728 -20.16351034 8.95383728 -25.875 11.25 Z M-26.875 26.25 C-25.875 28.25 -25.875 28.25 -25.875 28.25 Z M-24.875 27.25 C-24.875 28.57 -24.875 29.89 -24.875 31.25 C-20.98135136 33.53829465 -18.31008745 33.39112596 -13.9375 32.80859375 C-11.65759362 32.37474137 -11.65759362 32.37474137 -9.8125 30.1875 C-9.503125 29.548125 -9.19375 28.90875 -8.875 28.25 C-10.03777032 26.85843516 -10.03777032 26.85843516 -13.25390625 27.15234375 C-14.64847077 27.15901631 -16.04301743 27.17097468 -17.4375 27.1875 C-18.14841797 27.19201172 -18.85933594 27.19652344 -19.59179688 27.20117188 C-21.35290013 27.21299136 -23.11396036 27.23092737 -24.875 27.25 Z " fill="#FEFEFB" transform="translate(420.875,37.75)"/>
<path d="M0 0 C6.93 0 13.86 0 21 0 C21.06058594 2.20300781 21.12117188 4.40601563 21.18359375 6.67578125 C21.24541059 8.81049946 21.30878689 10.94516608 21.37231445 13.07983398 C21.4156133 14.56286015 21.45729199 16.04593454 21.49731445 17.52905273 C21.55513958 19.66144339 21.61879832 21.79359242 21.68359375 23.92578125 C21.72025146 25.20880127 21.75690918 26.49182129 21.79467773 27.8137207 C21.86561234 31.02111551 21.86561234 31.02111551 23 34 C25.21295616 35.10647808 26.54672699 35.19588368 29 35.25 C30.051875 35.28867188 30.051875 35.28867188 31.125 35.328125 C31.74375 35.21984375 32.3625 35.1115625 33 35 C36.16294404 30.25558394 36.12271399 25.31596777 36.31640625 19.7265625 C36.37924805 17.99599609 36.37924805 17.99599609 36.44335938 16.23046875 C36.48267578 15.04066406 36.52199219 13.85085937 36.5625 12.625 C36.62727539 10.80548828 36.62727539 10.80548828 36.69335938 8.94921875 C36.79905451 5.96626716 36.89999433 2.98314775 37 0 C43.6 0 50.2 0 57 0 C57.09220956 5.26619044 57.17172841 10.52954165 57.21972656 15.79589844 C57.23974959 17.58440684 57.26697654 19.37285054 57.30175781 21.16113281 C57.35068955 23.74300162 57.37306165 26.3239995 57.390625 28.90625 C57.41127014 29.69616333 57.43191528 30.48607666 57.45318604 31.29992676 C57.45603671 38.47260822 55.2687312 43.62574642 50.3125 48.8125 C43.5150613 53.30137461 36.6087931 54.5423804 28.5625 54.4375 C27.73137695 54.42847656 26.90025391 54.41945312 26.04394531 54.41015625 C17.38918413 54.16607368 11.11764815 52.59113577 5 46.1875 C0.13004549 40.50978861 -0.29647574 33.80894276 -0.1953125 26.66015625 C-0.1924826 25.89319931 -0.18965271 25.12624237 -0.18673706 24.33604431 C-0.17563475 21.91136379 -0.15054967 19.48706691 -0.125 17.0625 C-0.1149573 15.4082085 -0.10583372 13.75391115 -0.09765625 12.09960938 C-0.07743837 8.06614327 -0.0382725 4.03349578 0 0 Z " fill="#FEFDFA" transform="translate(43,34)"/>
<path d="M0 0 C6.93 0 13.86 0 21 0 C21 6.27 21 12.54 21 19 C24.3 19 27.6 19 31 19 C31 24.28 31 29.56 31 35 C28.36 35 25.72 35 23 35 C23 40.61 23 46.22 23 52 C24.98 52 26.96 52 29 52 C29.67548578 54.05962852 30.34004312 56.12284322 31 58.1875 C31.37125 59.33605469 31.7425 60.48460937 32.125 61.66796875 C32.90630553 64.64320812 33.18363306 66.95283896 33 70 C26.52393921 73.61454555 20.30783441 73.67892139 13 73 C7.98095135 71.38673436 4.77891145 68.44428745 2 64 C0.81111291 61.36067066 -0.09631588 58.75861468 -1 56 C-1.33 56 -1.66 56 -2 56 C-2 49.07 -2 42.14 -2 35 C-3.65 35 -5.3 35 -7 35 C-7 29.72 -7 24.44 -7 19 C-4.69 19 -2.38 19 0 19 C0 12.73 0 6.46 0 0 Z M21 35 C21 40.94 21 46.88 21 53 C21.33 53 21.66 53 22 53 C22 47.06 22 41.12 22 35 C21.67 35 21.34 35 21 35 Z " fill="#FEFEFD" transform="translate(157,15)"/>
<path d="M0 0 C2.23569818 0.81998509 2.23569818 0.81998509 4.21484375 -0.44140625 C3.7914899 6.0500194 1.30384576 10.89352364 -1.78515625 16.55859375 C-2.84283203 16.34396484 -2.84283203 16.34396484 -3.921875 16.125 C-6.80927226 15.55382319 -9.70125011 15.01954064 -12.59765625 14.49609375 C-13.57347656 14.31949219 -14.54929688 14.14289062 -15.5546875 13.9609375 C-16.29074219 13.82816406 -17.02679688 13.69539063 -17.78515625 13.55859375 C-17.78515625 14.21859375 -17.78515625 14.87859375 -17.78515625 15.55859375 C-17.06070313 15.72875 -16.33625 15.89890625 -15.58984375 16.07421875 C-6.77636475 18.28346415 -1.23389446 21.24171672 4.21484375 28.55859375 C5.8220679 33.38026621 5.60113518 37.26338129 4.15234375 42.12109375 C1.14673967 47.45361712 -2.25526522 50.67614366 -8.06640625 52.703125 C-18.226933 55.04047306 -28.46620153 54.35440694 -37.78515625 49.55859375 C-39.14324571 48.59248257 -40.48516731 47.60157339 -41.78515625 46.55859375 C-40.41228283 42.85983284 -38.72160172 39.60714615 -36.66015625 36.24609375 C-36.12132813 35.36308594 -35.5825 34.48007813 -35.02734375 33.5703125 C-34.61742188 32.90644531 -34.2075 32.24257812 -33.78515625 31.55859375 C-30.64665055 32.30298292 -27.76505964 33.31696734 -24.78515625 34.55859375 C-24.45515625 33.89859375 -24.12515625 33.23859375 -23.78515625 32.55859375 C-24.30464844 32.25566406 -24.82414062 31.95273438 -25.359375 31.640625 C-35.86065702 25.33209144 -35.86065702 25.33209144 -37.78515625 19.55859375 C-38.15339113 13.94301186 -38.02407031 10.36472429 -34.78515625 5.55859375 C-25.5070513 -4.70132124 -12.30074536 -3.97082885 0 0 Z M-17.78515625 34.55859375 C-20.09515625 34.88859375 -22.40515625 35.21859375 -24.78515625 35.55859375 C-22.43076892 36.9880432 -21.30483192 37.64520636 -18.53515625 37.18359375 C-17.95765625 36.97734375 -17.38015625 36.77109375 -16.78515625 36.55859375 C-17.11515625 35.89859375 -17.44515625 35.23859375 -17.78515625 34.55859375 Z " fill="#FEFDFA" transform="translate(144.78515625,34.44140625)"/>
<path d="M0 0 C6.93 0 13.86 0 21 0 C21 28.71 21 57.42 21 87 C14.07 87 7.14 87 0 87 C0 58.29 0 29.58 0 0 Z " fill="#FEFEFB" transform="translate(258,0)"/>
<path d="M0 0 C6.93 0 13.86 0 21 0 C21.04540318 7.38954278 21.08200305 14.77900779 21.10362434 22.16866112 C21.1140078 25.60093799 21.12806596 29.03311348 21.15087891 32.46533203 C21.17701074 36.42218766 21.18651771 40.37900397 21.1953125 44.3359375 C21.20563507 45.55300385 21.21595764 46.77007019 21.22659302 48.02401733 C21.22900142 66.5251983 21.22900142 66.5251983 15 74 C9.30391398 79.14037031 4.82627663 79.26769889 -2.61328125 79.234375 C-7.19285577 78.91744943 -10.76246088 77.72374473 -15 76 C-14.31583566 71.82423832 -12.98634991 68.11919593 -11.4375 64.1875 C-10.75494141 62.44533203 -10.75494141 62.44533203 -10.05859375 60.66796875 C-9.70925781 59.78753906 -9.35992187 58.90710938 -9 58 C-6.69 58.33 -4.38 58.66 -2 59 C-0.70033415 56.4006683 -0.83955838 54.45135797 -0.79467773 51.54052734 C-0.7647599 49.82897964 -0.7647599 49.82897964 -0.73423767 48.08285522 C-0.71752518 46.84637238 -0.70081268 45.60988953 -0.68359375 44.3359375 C-0.6524221 42.4424205 -0.6524221 42.4424205 -0.62062073 40.51065063 C-0.56622074 37.15367955 -0.51599764 33.79669811 -0.46777344 30.43963623 C-0.41754958 27.01438935 -0.36186814 23.58923171 -0.30664062 20.1640625 C-0.19938137 13.44277714 -0.0981299 6.72142459 0 0 Z " fill="#FEFEFD" transform="translate(16,34)"/>
<path d="M0 0 C14.85 0 29.7 0 45 0 C48.66666667 7.33333333 52.33333333 14.66666667 56 22 C56.2673999 21.40461426 56.5347998 20.80922852 56.81030273 20.19580078 C58.01893529 17.505339 59.22820973 14.81516621 60.4375 12.125 C60.85837891 11.18785156 61.27925781 10.25070313 61.71289062 9.28515625 C62.11572266 8.38925781 62.51855469 7.49335937 62.93359375 6.5703125 C63.30540771 5.74289551 63.67722168 4.91547852 64.06030273 4.06298828 C64.68240177 2.69724736 65.32884346 1.34231307 66 0 C73.92 0 81.84 0 90 0 C88.66052495 4.01842516 87.51754608 7.19439886 85.6015625 10.84375 C85.12759033 11.75036377 84.65361816 12.65697754 84.1652832 13.59106445 C83.65698975 14.55101318 83.14869629 15.51096191 82.625 16.5 C82.10059326 17.49797607 81.57618652 18.49595215 81.03588867 19.52416992 C75.8038178 29.44588218 70.43475984 39.29286873 65.0246582 49.1184082 C64.32674349 50.39999711 63.65261858 51.69476283 63 53 C58.38 53 53.76 53 49 53 C42.83167675 42.42573156 37.03222329 31.6689763 31.28100586 20.86425781 C30.96326706 20.26804123 30.64552826 19.67182465 30.31816101 19.05754089 C29.44574157 17.41986894 28.57486924 15.78137308 27.70410156 14.14282227 C25.85518216 10.7329169 23.92447923 7.36783866 22 4 C21.67 20.17 21.34 36.34 21 53 C14.07 53 7.14 53 0 53 C0 35.51 0 18.02 0 0 Z M68 1 C61.73965565 13.37764697 61.73965565 13.37764697 56 26 C52 18 48 10 44 2 C37.4 2 30.8 2 24 2 C28.80904723 11.71238951 33.70792203 21.37385289 38.6875 31 C39.23365967 32.0614624 39.77981934 33.1229248 40.3425293 34.21655273 C41.3918244 36.23845081 42.45845277 38.2514733 43.54443359 40.25390625 C45 43 45 43 46.08447266 45.52734375 C47.20719742 47.88139401 47.96318613 49.3599451 50 51 C54.08154515 51.66358974 57.90440193 51.47030791 62 51 C62.36649658 50.28682617 62.73299316 49.57365234 63.1105957 48.83886719 C64.84169038 45.47442486 66.57587447 42.11158987 68.3125 38.75 C68.62657806 38.14196533 68.94065613 37.53393066 69.26425171 36.9074707 C73.9419445 27.86258907 78.73017665 18.88998883 83.71020508 10.00683594 C84.13197021 9.25176758 84.55373535 8.49669922 84.98828125 7.71875 C85.35477783 7.06841797 85.72127441 6.41808594 86.09887695 5.74804688 C87.13784309 3.84249008 87.13784309 3.84249008 88 1 C81.4 1 74.8 1 68 1 Z " fill="#FEFDF9" transform="translate(286,34)"/>
<path d="M0 0 C14.85 0 29.7 0 45 0 C48.66666667 7.33333333 52.33333333 14.66666667 56 22 C56.2673999 21.40461426 56.5347998 20.80922852 56.81030273 20.19580078 C58.01893529 17.505339 59.22820973 14.81516621 60.4375 12.125 C60.85837891 11.18785156 61.27925781 10.25070313 61.71289062 9.28515625 C62.11572266 8.38925781 62.51855469 7.49335937 62.93359375 6.5703125 C63.30540771 5.74289551 63.67722168 4.91547852 64.06030273 4.06298828 C64.68240177 2.69724736 65.32884346 1.34231307 66 0 C73.92 0 81.84 0 90 0 C88.66052495 4.01842516 87.51754608 7.19439886 85.6015625 10.84375 C85.12759033 11.75036377 84.65361816 12.65697754 84.1652832 13.59106445 C83.65698975 14.55101318 83.14869629 15.51096191 82.625 16.5 C82.10059326 17.49797607 81.57618652 18.49595215 81.03588867 19.52416992 C75.8038178 29.44588218 70.43475984 39.29286873 65.0246582 49.1184082 C64.32674349 50.39999711 63.65261858 51.69476283 63 53 C58.38 53 53.76 53 49 53 C42.83167675 42.42573156 37.03222329 31.6689763 31.28100586 20.86425781 C30.96326706 20.26804123 30.64552826 19.67182465 30.31816101 19.05754089 C29.44574157 17.41986894 28.57486924 15.78137308 27.70410156 14.14282227 C25.85518216 10.7329169 23.92447923 7.36783866 22 4 C21.67 20.17 21.34 36.34 21 53 C14.07 53 7.14 53 0 53 C0 35.51 0 18.02 0 0 Z M2 1 C2 17.5 2 34 2 51 C7.61 51 13.22 51 19 51 C19 34.5 19 18 19 1 C13.39 1 7.78 1 2 1 Z M68 1 C61.73965565 13.37764697 61.73965565 13.37764697 56 26 C52 18 48 10 44 2 C37.4 2 30.8 2 24 2 C28.80904723 11.71238951 33.70792203 21.37385289 38.6875 31 C39.23365967 32.0614624 39.77981934 33.1229248 40.3425293 34.21655273 C41.3918244 36.23845081 42.45845277 38.2514733 43.54443359 40.25390625 C45 43 45 43 46.08447266 45.52734375 C47.20719742 47.88139401 47.96318613 49.3599451 50 51 C54.08154515 51.66358974 57.90440193 51.47030791 62 51 C62.36649658 50.28682617 62.73299316 49.57365234 63.1105957 48.83886719 C64.84169038 45.47442486 66.57587447 42.11158987 68.3125 38.75 C68.62657806 38.14196533 68.94065613 37.53393066 69.26425171 36.9074707 C73.9419445 27.86258907 78.73017665 18.88998883 83.71020508 10.00683594 C84.13197021 9.25176758 84.55373535 8.49669922 84.98828125 7.71875 C85.35477783 7.06841797 85.72127441 6.41808594 86.09887695 5.74804688 C87.13784309 3.84249008 87.13784309 3.84249008 88 1 C81.4 1 74.8 1 68 1 Z " fill="#FEE065" transform="translate(286,34)"/>
<path d="M0 0 C3.21744664 3.21744664 4.4576894 5.385499 4.625 9.875 C4.54478081 14.85588251 3.11211118 17.29901913 -0.26953125 20.84765625 C-3.80977042 23.66434289 -7.54815144 23.42340335 -11.875 23.125 C-15.97719771 21.31240101 -18.63915359 19.01702893 -20.875 15.125 C-21.62094184 10.99469243 -21.83140934 7.04173838 -19.921875 3.21484375 C-14.60109118 -3.6381911 -7.10657994 -4.63472605 0 0 Z " fill="#FEFEFB" transform="translate(512.875,64.875)"/>
<path d="M0 0 C6.72183372 5.02193197 10.09464747 10.42668305 11.42578125 18.62109375 C12.23114339 25.30656983 12.23114339 25.30656983 11 29 C5.06 29.495 5.06 29.495 -1 30 C2.96 31.98 6.92 33.96 11 36 C8.33758394 42.65604015 4.16309545 46.62333681 -2.06640625 50.1796875 C-9.89587749 53.29959065 -19.46588722 53.45961165 -27.421875 50.8984375 C-36.19141922 46.8190724 -41.67845268 41.42338812 -45.3046875 32.44921875 C-47.36867569 25.17887832 -46.4744417 18.18547123 -43.390625 11.35546875 C-38.98759312 3.89752431 -32.32509626 -1.09345367 -24.08203125 -3.578125 C-15.66443195 -5.28375488 -7.54065421 -4.0612298 0 0 Z M-39.88671875 9.1640625 C-43.89669051 15.77699839 -45.11570029 22.29737687 -44 30 C-41.42493044 38.17823018 -36.44869976 43.69059451 -29.19921875 48.09375 C-22.21463359 51.32430759 -13.36828041 51.12823136 -6.05078125 49.23828125 C-1.50588892 47.51951031 2.5815166 45.525311 6 42 C6.66 40.35 7.32 38.7 8 37 C4.04 35.02 0.08 33.04 -4 31 C-5.65 32.32 -7.3 33.64 -9 35 C-12.93572405 36.96786203 -17.65239833 36.23436551 -21.875 35.5 C-24 34 -24 34 -26 26 C-14.45 26 -2.9 26 9 26 C9 15.74044817 8.5216901 10.78007239 1.8125 3.6875 C-12.11399812 -4.66839887 -29.34211535 -5.08203885 -39.88671875 9.1640625 Z M-24 28 C-23 30 -23 30 -23 30 Z M-22 29 C-22 30.32 -22 31.64 -22 33 C-18.10635136 35.28829465 -15.43508745 35.14112596 -11.0625 34.55859375 C-8.78259362 34.12474137 -8.78259362 34.12474137 -6.9375 31.9375 C-6.628125 31.298125 -6.31875 30.65875 -6 30 C-7.16277032 28.60843516 -7.16277032 28.60843516 -10.37890625 28.90234375 C-11.77347077 28.90901631 -13.16801743 28.92097468 -14.5625 28.9375 C-15.27341797 28.94201172 -15.98433594 28.94652344 -16.71679688 28.95117188 C-18.47790013 28.96299136 -20.23896036 28.98092737 -22 29 Z " fill="#FEDF64" transform="translate(476,36)"/>
<path d="M0 0 C6.93 0 13.86 0 21 0 C21 6.27 21 12.54 21 19 C24.3 19 27.6 19 31 19 C31 24.28 31 29.56 31 35 C28.36 35 25.72 35 23 35 C23 40.61 23 46.22 23 52 C24.98 52 26.96 52 29 52 C29.67548578 54.05962852 30.34004312 56.12284322 31 58.1875 C31.37125 59.33605469 31.7425 60.48460937 32.125 61.66796875 C32.90630553 64.64320812 33.18363306 66.95283896 33 70 C26.52393921 73.61454555 20.30783441 73.67892139 13 73 C7.98095135 71.38673436 4.77891145 68.44428745 2 64 C0.81111291 61.36067066 -0.09631588 58.75861468 -1 56 C-1.33 56 -1.66 56 -2 56 C-2 49.07 -2 42.14 -2 35 C-3.65 35 -5.3 35 -7 35 C-7 29.72 -7 24.44 -7 19 C-4.69 19 -2.38 19 0 19 C0 12.73 0 6.46 0 0 Z M2 2 C2 8.27 2 14.54 2 21 C-0.31 21 -2.62 21 -5 21 C-5 24.96 -5 28.92 -5 33 C-2.69 33 -0.38 33 2 33 C1.97905273 33.6798999 1.95810547 34.3597998 1.93652344 35.06030273 C1.85260105 38.18588047 1.8011009 41.31122016 1.75 44.4375 C1.71648437 45.50677734 1.68296875 46.57605469 1.6484375 47.67773438 C1.55677985 55.17074756 2.28479751 61.9212631 7.52197266 67.67089844 C11.93049004 71.63521437 16.38838931 71.34593853 22.0703125 71.26953125 C25.78017384 70.92822401 27.93007653 70.04661564 31 68 C30.27991594 63.39146203 28.68704061 59.32762591 27 55 C25.02 55 23.04 55 21 55 C19.82530556 52.65061112 19.79965111 51.04926795 19.68359375 48.4296875 C19.64169922 47.53378906 19.59980469 46.63789062 19.55664062 45.71484375 C19.51732422 44.77769531 19.47800781 43.84054688 19.4375 42.875 C19.39431641 41.93011719 19.35113281 40.98523437 19.30664062 40.01171875 C19.2004106 37.67465828 19.09968729 35.3373487 19 33 C22.3 33 25.6 33 29 33 C29 29.04 29 25.08 29 21 C25.7 21 22.4 21 19 21 C19 14.73 19 8.46 19 2 C13.39 2 7.78 2 2 2 Z M21 35 C21 40.94 21 46.88 21 53 C21.33 53 21.66 53 22 53 C22 47.06 22 41.12 22 35 C21.67 35 21.34 35 21 35 Z " fill="#FEDF62" transform="translate(157,15)"/>
<path d="M0 0 C5.86892918 6.21416031 8.26582534 11.90003785 8.1875 20.4375 C8.17847656 21.70980469 8.16945313 22.98210938 8.16015625 24.29296875 C8.14855469 25.26878906 8.13695312 26.24460937 8.125 27.25 C2.185 27.745 2.185 27.745 -3.875 28.25 C0.085 30.23 4.045 32.21 8.125 34.25 C5.46258394 40.90604015 1.28809545 44.87333681 -4.94140625 48.4296875 C-12.77087749 51.54959065 -22.34088722 51.70961165 -30.296875 49.1484375 C-38.84530232 45.17193027 -44.26076399 40.00025561 -47.875 31.25 C-50.02678224 23.81657046 -49.4411794 16.10022435 -45.875 9.25 C-40.55774871 1.91176092 -35.10334486 -2.78315425 -26.5 -5.5 C-16.59579468 -6.44325765 -8.64860916 -5.2643708 0 0 Z M-40.875 5.25 C-46.25797492 12.79536656 -47.85158854 18.93834181 -46.875 28.25 C-44.40178615 36.43240843 -39.2840142 41.96469853 -32.07421875 46.34375 C-25.08963359 49.57430759 -16.24328041 49.37823136 -8.92578125 47.48828125 C-4.38088892 45.76951031 -0.2934834 43.775311 3.125 40.25 C3.785 38.6 4.445 36.95 5.125 35.25 C1.165 33.27 -2.795 31.29 -6.875 29.25 C-8.525 30.57 -10.175 31.89 -11.875 33.25 C-14.84765625 33.78125 -14.84765625 33.78125 -17.9375 33.75 C-18.95972656 33.7603125 -19.98195313 33.770625 -21.03515625 33.78125 C-24.58786558 33.11664413 -25.73755016 32.13284227 -27.875 29.25 C-28.37 26.775 -28.37 26.775 -28.875 24.25 C-17.325 24.25 -5.775 24.25 6.125 24.25 C6.14235247 11.72962677 6.14235247 11.72962677 -0.5 2.5 C-7.26069331 -2.48601132 -14.55882445 -4.49723197 -22.91015625 -4.20703125 C-29.60714532 -3.17468906 -36.10058882 0.47558882 -40.875 5.25 Z M-26.875 26.25 C-25.875 28.25 -25.875 28.25 -25.875 28.25 Z M-24.875 27.25 C-24.875 28.57 -24.875 29.89 -24.875 31.25 C-20.98135136 33.53829465 -18.31008745 33.39112596 -13.9375 32.80859375 C-11.65759362 32.37474137 -11.65759362 32.37474137 -9.8125 30.1875 C-9.503125 29.548125 -9.19375 28.90875 -8.875 28.25 C-10.03777032 26.85843516 -10.03777032 26.85843516 -13.25390625 27.15234375 C-14.64847077 27.15901631 -16.04301743 27.17097468 -17.4375 27.1875 C-18.14841797 27.19201172 -18.85933594 27.19652344 -19.59179688 27.20117188 C-21.35290013 27.21299136 -23.11396036 27.23092737 -24.875 27.25 Z " fill="#FEDF63" transform="translate(420.875,37.75)"/>
<path d="M0 0 C6.93 0 13.86 0 21 0 C21.04540318 7.38954278 21.08200305 14.77900779 21.10362434 22.16866112 C21.1140078 25.60093799 21.12806596 29.03311348 21.15087891 32.46533203 C21.17701074 36.42218766 21.18651771 40.37900397 21.1953125 44.3359375 C21.20563507 45.55300385 21.21595764 46.77007019 21.22659302 48.02401733 C21.22900142 66.5251983 21.22900142 66.5251983 15 74 C9.30391398 79.14037031 4.82627663 79.26769889 -2.61328125 79.234375 C-7.19285577 78.91744943 -10.76246088 77.72374473 -15 76 C-14.31583566 71.82423832 -12.98634991 68.11919593 -11.4375 64.1875 C-10.75494141 62.44533203 -10.75494141 62.44533203 -10.05859375 60.66796875 C-9.70925781 59.78753906 -9.35992187 58.90710938 -9 58 C-6.69 58.33 -4.38 58.66 -2 59 C-0.70033415 56.4006683 -0.83955838 54.45135797 -0.79467773 51.54052734 C-0.7647599 49.82897964 -0.7647599 49.82897964 -0.73423767 48.08285522 C-0.71752518 46.84637238 -0.70081268 45.60988953 -0.68359375 44.3359375 C-0.6524221 42.4424205 -0.6524221 42.4424205 -0.62062073 40.51065063 C-0.56622074 37.15367955 -0.51599764 33.79669811 -0.46777344 30.43963623 C-0.41754958 27.01438935 -0.36186814 23.58923171 -0.30664062 20.1640625 C-0.19938137 13.44277714 -0.0981299 6.72142459 0 0 Z M2 2 C1.98018066 3.6806958 1.96036133 5.3613916 1.93994141 7.09301758 C1.87217876 12.64515275 1.79540415 18.19711425 1.71247292 23.74904346 C1.66252038 27.11528716 1.61619053 30.48149963 1.578125 33.84790039 C1.53257165 37.7177998 1.47456059 41.58734025 1.4140625 45.45703125 C1.39673569 47.27120293 1.39673569 47.27120293 1.37905884 49.12202454 C1.35918915 50.24296005 1.33931946 51.36389557 1.31884766 52.51879883 C1.30552399 53.50697098 1.29220032 54.49514313 1.2784729 55.51325989 C1 58 1 58 -1 61 C-4.625 61.1875 -4.625 61.1875 -8 61 C-10.98289836 66.70294194 -10.98289836 66.70294194 -12.0625 72.9375 C-11.1573793 75.19003323 -11.1573793 75.19003323 -8.8046875 76.109375 C-2.89298673 77.98662817 3.5730012 77.79429052 9.4375 75.875 C13.45434726 72.93584347 16.39534056 69.81397832 18 65 C18.08911173 62.96033519 18.11760045 60.91782714 18.11352539 58.8762207 C18.11341209 56.98459953 18.11341209 56.98459953 18.11329651 55.05476379 C18.10818989 53.67843588 18.10297389 52.30210837 18.09765625 50.92578125 C18.09579086 49.51759389 18.09436753 48.10940589 18.09336853 46.70121765 C18.08955288 42.9973267 18.07973072 39.29347505 18.06866455 35.58959961 C18.05842997 31.80908744 18.05386652 28.02856891 18.04882812 24.24804688 C18.03810759 16.83201127 18.0205185 9.41601615 18 2 C12.72 2 7.44 2 2 2 Z " fill="#FEED9D" transform="translate(16,34)"/>
<path d="M0 0 C2.23569818 0.81998509 2.23569818 0.81998509 4.21484375 -0.44140625 C3.7914899 6.0500194 1.30384576 10.89352364 -1.78515625 16.55859375 C-2.84283203 16.34396484 -2.84283203 16.34396484 -3.921875 16.125 C-6.80927226 15.55382319 -9.70125011 15.01954064 -12.59765625 14.49609375 C-13.57347656 14.31949219 -14.54929688 14.14289062 -15.5546875 13.9609375 C-16.29074219 13.82816406 -17.02679688 13.69539063 -17.78515625 13.55859375 C-17.78515625 14.21859375 -17.78515625 14.87859375 -17.78515625 15.55859375 C-17.06070313 15.72875 -16.33625 15.89890625 -15.58984375 16.07421875 C-6.77636475 18.28346415 -1.23389446 21.24171672 4.21484375 28.55859375 C5.8220679 33.38026621 5.60113518 37.26338129 4.15234375 42.12109375 C1.14673967 47.45361712 -2.25526522 50.67614366 -8.06640625 52.703125 C-18.226933 55.04047306 -28.46620153 54.35440694 -37.78515625 49.55859375 C-39.14324571 48.59248257 -40.48516731 47.60157339 -41.78515625 46.55859375 C-40.41228283 42.85983284 -38.72160172 39.60714615 -36.66015625 36.24609375 C-36.12132813 35.36308594 -35.5825 34.48007813 -35.02734375 33.5703125 C-34.61742188 32.90644531 -34.2075 32.24257812 -33.78515625 31.55859375 C-30.64665055 32.30298292 -27.76505964 33.31696734 -24.78515625 34.55859375 C-24.45515625 33.89859375 -24.12515625 33.23859375 -23.78515625 32.55859375 C-24.30464844 32.25566406 -24.82414062 31.95273438 -25.359375 31.640625 C-35.86065702 25.33209144 -35.86065702 25.33209144 -37.78515625 19.55859375 C-38.15339113 13.94301186 -38.02407031 10.36472429 -34.78515625 5.55859375 C-25.5070513 -4.70132124 -12.30074536 -3.97082885 0 0 Z M-31.66015625 5.05859375 C-35.01256469 9.00260368 -36.21158665 11.25509724 -36.01953125 16.5078125 C-35.53654106 20.73397667 -34.18217316 23.42280765 -30.86328125 26.12109375 C-26.07453111 29.42368005 -21.03726902 32.07577681 -15.78515625 34.55859375 C-15.78515625 35.54859375 -15.78515625 36.53859375 -15.78515625 37.55859375 C-22.6700585 38.1323356 -26.81183502 37.03398065 -32.78515625 33.55859375 C-33.84612088 35.12906118 -34.8834186 36.71553892 -35.91015625 38.30859375 C-36.49023438 39.1903125 -37.0703125 40.07203125 -37.66796875 40.98046875 C-39.05063365 43.45011774 -39.05063365 43.45011774 -38.2265625 45.74609375 C-35.31011485 49.41338836 -31.21515553 50.46915854 -26.78515625 51.55859375 C-18.18193631 52.48069664 -9.17570758 52.60406629 -1.78515625 47.55859375 C1.8679829 43.88054683 3.49002668 40.09659443 3.77734375 34.93359375 C3.49714764 30.53375753 2.16768125 27.8999625 -0.78515625 24.55859375 C-5.23737598 20.86650909 -10.03494144 19.33328756 -15.4921875 17.68359375 C-17.78515625 16.55859375 -17.78515625 16.55859375 -18.609375 14.43359375 C-18.66738281 13.81484375 -18.72539063 13.19609375 -18.78515625 12.55859375 C-13.04673374 12.35446014 -8.17976578 12.28717921 -2.78515625 14.55859375 C-1.13515625 10.92859375 0.51484375 7.29859375 2.21484375 3.55859375 C-8.23943147 -2.16636649 -22.26960366 -3.10710416 -31.66015625 5.05859375 Z M-17.78515625 34.55859375 C-20.09515625 34.88859375 -22.40515625 35.21859375 -24.78515625 35.55859375 C-22.43076892 36.9880432 -21.30483192 37.64520636 -18.53515625 37.18359375 C-17.95765625 36.97734375 -17.38015625 36.77109375 -16.78515625 36.55859375 C-17.11515625 35.89859375 -17.44515625 35.23859375 -17.78515625 34.55859375 Z " fill="#FEDF62" transform="translate(144.78515625,34.44140625)"/>
<path d="M0 0 C6.93 0 13.86 0 21 0 C21.06058594 2.20300781 21.12117188 4.40601563 21.18359375 6.67578125 C21.24541059 8.81049946 21.30878689 10.94516608 21.37231445 13.07983398 C21.4156133 14.56286015 21.45729199 16.04593454 21.49731445 17.52905273 C21.55513958 19.66144339 21.61879832 21.79359242 21.68359375 23.92578125 C21.72025146 25.20880127 21.75690918 26.49182129 21.79467773 27.8137207 C21.86561234 31.02111551 21.86561234 31.02111551 23 34 C25.21295616 35.10647808 26.54672699 35.19588368 29 35.25 C30.051875 35.28867188 30.051875 35.28867188 31.125 35.328125 C31.74375 35.21984375 32.3625 35.1115625 33 35 C36.16294404 30.25558394 36.12271399 25.31596777 36.31640625 19.7265625 C36.37924805 17.99599609 36.37924805 17.99599609 36.44335938 16.23046875 C36.48267578 15.04066406 36.52199219 13.85085937 36.5625 12.625 C36.62727539 10.80548828 36.62727539 10.80548828 36.69335938 8.94921875 C36.79905451 5.96626716 36.89999433 2.98314775 37 0 C43.6 0 50.2 0 57 0 C57.09220956 5.26619044 57.17172841 10.52954165 57.21972656 15.79589844 C57.23974959 17.58440684 57.26697654 19.37285054 57.30175781 21.16113281 C57.35068955 23.74300162 57.37306165 26.3239995 57.390625 28.90625 C57.41127014 29.69616333 57.43191528 30.48607666 57.45318604 31.29992676 C57.45603671 38.47260822 55.2687312 43.62574642 50.3125 48.8125 C43.5150613 53.30137461 36.6087931 54.5423804 28.5625 54.4375 C27.73137695 54.42847656 26.90025391 54.41945312 26.04394531 54.41015625 C17.38918413 54.16607368 11.11764815 52.59113577 5 46.1875 C0.13004549 40.50978861 -0.29647574 33.80894276 -0.1953125 26.66015625 C-0.1924826 25.89319931 -0.18965271 25.12624237 -0.18673706 24.33604431 C-0.17563475 21.91136379 -0.15054967 19.48706691 -0.125 17.0625 C-0.1149573 15.4082085 -0.10583372 13.75391115 -0.09765625 12.09960938 C-0.07743837 8.06614327 -0.0382725 4.03349578 0 0 Z M2 1 C1.90751851 5.66003933 1.82809029 10.31682043 1.78027344 14.97705078 C1.76031578 16.55789045 1.7331394 18.13865783 1.69824219 19.71923828 C1.24192102 34.66120731 1.24192102 34.66120731 8.25 47.4375 C15.03984903 51.29536877 20.7452975 52.48675113 28.4375 52.375 C29.23220703 52.38660156 30.02691406 52.39820313 30.84570312 52.41015625 C37.36065417 52.37835014 43.89126505 51.46752258 49.12109375 47.31640625 C49.55550781 46.73761719 49.98992187 46.15882812 50.4375 45.5625 C50.88996094 44.98628906 51.34242187 44.41007812 51.80859375 43.81640625 C52.20175781 43.21699219 52.59492187 42.61757812 53 42 C53.35054443 41.47752686 53.70108887 40.95505371 54.06225586 40.41674805 C55.45148692 36.83643088 55.24482711 33.29873473 55.1953125 29.515625 C55.19106766 28.29223419 55.19106766 28.29223419 55.18673706 27.04412842 C55.17556558 24.44593472 55.15046675 21.84808905 55.125 19.25 C55.11496627 17.48568207 55.10584111 15.72135872 55.09765625 13.95703125 C55.07733992 9.63777973 55.03818615 5.31927824 55 1 C49.39 1 43.78 1 38 1 C37.95101562 3.19140625 37.90203125 5.3828125 37.8515625 7.640625 C37.79751398 9.76878542 37.74022184 11.89683557 37.68261719 14.02490234 C37.64439334 15.50105536 37.60952897 16.97729943 37.578125 18.45361328 C37.53233014 20.57878094 37.47436163 22.70332542 37.4140625 24.828125 C37.3826416 26.1059082 37.3512207 27.38369141 37.31884766 28.70019531 C37.02488248 31.74248726 36.70224419 33.499947 35 36 C32.35541621 37.32229189 30.32238699 37.09677194 27.375 37.0625 C26.37210938 37.05347656 25.36921875 37.04445312 24.3359375 37.03515625 C23.56507812 37.02355469 22.79421875 37.01195312 22 37 C20.28440789 32.50334278 19.70906165 28.65340451 19.5859375 23.8515625 C19.56657135 23.19417084 19.5472052 22.53677917 19.5272522 21.85946655 C19.46797539 19.78143865 19.42128206 17.70335376 19.375 15.625 C19.33677222 14.2070085 19.29771777 12.78903903 19.2578125 11.37109375 C19.16077644 7.91418405 19.08080209 4.45747888 19 1 C13.39 1 7.78 1 2 1 Z " fill="#FEDD57" transform="translate(43,34)"/>
<path d="M0 0 C4.31646551 2.28518762 7.0976625 4.45552709 9 9 C9.59676278 12.58057666 9.73781641 14.86281507 7.72265625 17.96875 C4.40526635 21.92690714 2.60128036 23.81001758 -2.6875 24.4375 C-7.22744391 24.41264629 -9.43982485 22.53738613 -12.65234375 19.5078125 C-14.78918278 17.11703028 -15.00177994 15.97641584 -15.25 12.6875 C-14.97846303 8.6823297 -14.50326737 7.08736309 -12 4 C-7.97731702 0.69246066 -5.22654139 -0.87109023 0 0 Z " fill="#FEFDF9" transform="translate(300,3)"/>
<path d="M0 0 C3.33597066 2.35080621 5.51268324 5.03562237 6.50390625 9.03125 C6.80517873 14.08485285 5.21724563 17.24654676 2 21 C-1.4094043 23.58644464 -4.8386449 23.36503115 -9 23 C-13.53664256 21.10094032 -15.84514668 18.39258561 -18 14 C-18.35310418 9.71230643 -17.47207906 6.74881506 -15.1875 3.125 C-10.53713595 -1.39249651 -6.10991165 -1.96276955 0 0 Z " fill="#FEFDFA" transform="translate(32,4)"/>
<path d="M0 0 C0.33 -0.33 0.66 -0.66 1 -1 C7.93 -1 14.86 -1 22 -1 C22 16.49 22 33.98 22 52 C15.07 52 8.14 52 1 52 C0.67 51.34 0.34 50.68 0 50 C-0.9075 50.495 -1.815 50.99 -2.75 51.5 C-9.12557136 54.22128046 -16.19528623 53.7946689 -22.75 51.9375 C-30.49997277 47.31732393 -36.45028228 41.90040352 -39 33 C-40.02461117 23.6799792 -39.929646 15.26555214 -34.23046875 7.62890625 C-24.86832284 -3.55912662 -13.17180775 -5.74769793 0 0 Z M-32.5546875 9.09765625 C-37.88248936 16.11019545 -37.56008693 23.44311636 -37 32 C-35.60708289 39.18886879 -31.25854426 44.67246839 -25.375 48.875 C-19.84027904 51.49670993 -14.02821661 51.74461545 -8 51 C-4.45572089 49.6538329 -1.23717057 47.96617735 2 46 C2.495 47.98 2.495 47.98 3 50 C8.61 50 14.22 50 20 50 C20 33.83 20 17.66 20 1 C14.39 1 8.78 1 3 1 C2.67 1.99 2.34 2.98 2 4 C1.278125 3.54625 0.55625 3.0925 -0.1875 2.625 C-12.61433874 -4.55495127 -23.74048283 -1.58188011 -32.5546875 9.09765625 Z " fill="#FEDF60" transform="translate(228,35)"/>
<path d="M0 0 C6.93 0 13.86 0 21 0 C21 28.71 21 57.42 21 87 C14.07 87 7.14 87 0 87 C0 58.29 0 29.58 0 0 Z M2 2 C2 29.39 2 56.78 2 85 C7.61 85 13.22 85 19 85 C19 57.61 19 30.22 19 2 C13.39 2 7.78 2 2 2 Z " fill="#FEDE5C" transform="translate(258,0)"/>
<path d="M0 0 C6.27 0 12.54 0 19 0 C19 0.33 19 0.66 19 1 C13.06 1 7.12 1 1 1 C1.01047363 2.77681152 1.02094727 4.55362305 1.03173828 6.38427734 C1.06395739 12.24760197 1.08695542 18.11092353 1.10362434 23.97430992 C1.11407224 27.53012399 1.12824959 31.0858425 1.15087891 34.64160156 C1.17671832 38.727223 1.18646444 42.81274369 1.1953125 46.8984375 C1.20563507 48.17866791 1.21595764 49.45889832 1.22659302 50.77792358 C1.22674408 51.95899689 1.22689514 53.14007019 1.22705078 54.35693359 C1.231492 55.40062103 1.23593323 56.44430847 1.24050903 57.5196228 C1 60 1 60 -1 62 C-4.625 61.625 -4.625 61.625 -8 61 C-10.83983236 67.84737812 -10.83983236 67.84737812 -10 75 C-3.73132996 76.85960547 3.3298189 76.9059543 9.5 74.8125 C14.32731338 71.3126978 16.40906995 67.70083268 18 62 C19.12890625 63.75 19.12890625 63.75 20 66 C18.17931833 71.03885954 14.42212897 75.09070462 10 78 C1.68511703 80.77162766 -7.08086584 79.22134271 -15 76 C-14.31583566 71.82423832 -12.98634991 68.11919593 -11.4375 64.1875 C-10.75494141 62.44533203 -10.75494141 62.44533203 -10.05859375 60.66796875 C-9.70925781 59.78753906 -9.35992187 58.90710938 -9 58 C-6.69 58.33 -4.38 58.66 -2 59 C-0.70033415 56.4006683 -0.83955838 54.45135797 -0.79467773 51.54052734 C-0.7647599 49.82897964 -0.7647599 49.82897964 -0.73423767 48.08285522 C-0.71752518 46.84637238 -0.70081268 45.60988953 -0.68359375 44.3359375 C-0.6524221 42.4424205 -0.6524221 42.4424205 -0.62062073 40.51065063 C-0.56622074 37.15367955 -0.51599764 33.79669811 -0.46777344 30.43963623 C-0.41754958 27.01438935 -0.36186814 23.58923171 -0.30664062 20.1640625 C-0.19938137 13.44277714 -0.0981299 6.72142459 0 0 Z " fill="#FEDD59" transform="translate(16,34)"/>
<path d="M0 0 C0.33 0 0.66 0 1 0 C1.0093457 0.97759277 1.01869141 1.95518555 1.02832031 2.96240234 C1.0685835 6.63439354 1.13443666 10.30557843 1.20751953 13.97705078 C1.23552079 15.55767355 1.25683764 17.13843091 1.27099609 18.71923828 C1.17429671 31.9341694 1.17429671 31.9341694 6 44 C12.57590932 49.61393132 18.8479387 50.19832185 27.1875 50.25 C28.00025391 50.270625 28.81300781 50.29125 29.65039062 50.3125 C35.81869328 50.3517573 42.73576603 49.82883614 47.59423828 45.6184082 C52.32073141 40.14368252 53.30725234 35.82481862 53.4140625 28.734375 C53.43342865 27.94097717 53.4527948 27.14757935 53.4727478 26.33013916 C53.53238361 23.80353443 53.57886443 21.27688375 53.625 18.75 C53.66319455 17.03383463 53.70224715 15.31768813 53.7421875 13.6015625 C53.83807186 9.40119544 53.92216167 5.20073866 54 1 C54.33 1 54.66 1 55 1 C55.24331963 5.97963566 55.45794097 10.95941382 55.64697266 15.94140625 C55.71509405 17.63314123 55.79081332 19.32458912 55.87451172 21.015625 C55.99403628 23.45795825 56.08546127 25.90004729 56.171875 28.34375 C56.21439392 29.08991577 56.25691284 29.83608154 56.30072021 30.6048584 C56.45899099 36.21319677 55.08599232 40.30766686 52 45 C46.62438571 50.62564286 40.00691378 53.00477897 32.31640625 53.43359375 C30.73194662 53.4572326 29.14700135 53.45815338 27.5625 53.4375 C26.73137695 53.42847656 25.90025391 53.41945312 25.04394531 53.41015625 C16.48056672 53.16865086 10.17694061 51.57705013 4 45.375 C-3.1613819 37.49059397 -1.08123204 24.70883325 -0.625 14.875 C-0.56661802 13.42712689 -0.50931838 11.97920971 -0.453125 10.53125 C-0.3145439 7.02023795 -0.16137414 3.51004705 0 0 Z " fill="#FEDF62" transform="translate(44,35)"/>
<path d="M0 0 C6.27 0 12.54 0 19 0 C19 0.33 19 0.66 19 1 C13.39 1 7.78 1 2 1 C2 17.5 2 34 2 51 C7.94 51 13.88 51 20 51 C20 34.5 20 18 20 1 C20.33 1 20.66 1 21 1 C21 18.16 21 35.32 21 53 C14.07 53 7.14 53 0 53 C0 35.51 0 18.02 0 0 Z " fill="#FEDD54" transform="translate(286,34)"/>
<path d="M0 0 C5.86892918 6.21416031 8.26582534 11.90003785 8.1875 20.4375 C8.17847656 21.70980469 8.16945313 22.98210938 8.16015625 24.29296875 C8.14855469 25.26878906 8.13695312 26.24460937 8.125 27.25 C4.825 26.92 1.525 26.59 -1.875 26.25 C-1.875 25.92 -1.875 25.59 -1.875 25.25 C1.095 25.25 4.065 25.25 7.125 25.25 C6.05925796 16.83624708 4.98474009 9.33678362 -1 3 C-8.95570415 -1.84260252 -16.51016472 -4.18125282 -25.875 -2.75 C-34.62966611 0.22098544 -40.09997421 5.40531477 -44.875 13.25 C-47.40953206 20.85359618 -46.31433848 28.22178658 -42.875 35.25 C-43.205 36.24 -43.535 37.23 -43.875 38.25 C-48.32231205 30.93345437 -49.93548852 24.7061609 -48.51953125 16.0859375 C-46.49997723 8.41434302 -41.20155474 2.18064314 -34.68359375 -2.234375 C-23.2114326 -8.24256566 -10.86586741 -6.61400625 0 0 Z " fill="#FEDE5D" transform="translate(420.875,37.75)"/>
<path d="M0 0 C6.93 0 13.86 0 21 0 C21 6.27 21 12.54 21 19 C23.64 19 26.28 19 29 19 C29 19.33 29 19.66 29 20 C26.03 20 23.06 20 20 20 C20 14.06 20 8.12 20 2 C14.06 2 8.12 2 2 2 C2 8.27 2 14.54 2 21 C-0.31 21 -2.62 21 -5 21 C-5 25.29 -5 29.58 -5 34 C-3.02 34 -1.04 34 1 34 C1.08685287 37.29150125 1.14033895 40.5827096 1.1875 43.875 C1.22520508 45.28072266 1.22520508 45.28072266 1.26367188 46.71484375 C1.27817383 48.05869141 1.27817383 48.05869141 1.29296875 49.4296875 C1.31653442 50.67081299 1.31653442 50.67081299 1.34057617 51.93701172 C1.22818604 52.61779785 1.1157959 53.29858398 1 54 C0.01 54.66 -0.98 55.32 -2 56 C-2 49.07 -2 42.14 -2 35 C-3.65 35 -5.3 35 -7 35 C-7 29.72 -7 24.44 -7 19 C-4.69 19 -2.38 19 0 19 C0 12.73 0 6.46 0 0 Z " fill="#FEDD58" transform="translate(157,15)"/>
<path d="M0 0 C0.495 1.98 0.495 1.98 1 4 C1.66 4 2.32 4 3 4 C2.67 6.31 2.34 8.62 2 11 C0.27185839 11.19672365 -1.45759197 11.38196799 -3.1875 11.5625 C-4.15042969 11.66691406 -5.11335938 11.77132812 -6.10546875 11.87890625 C-8.94493007 11.99769613 -11.23484406 11.56831357 -14 11 C-14.99 11.495 -14.99 11.495 -16 12 C-18.55157655 12.0716735 -21.07472971 12.09308442 -23.625 12.0625 C-24.33140625 12.05798828 -25.0378125 12.05347656 -25.765625 12.04882812 C-27.51045275 12.03703875 -29.255237 12.01910324 -31 12 C-30.67 12.99 -30.34 13.98 -30 15 C-28.7625 15.165 -27.525 15.33 -26.25 15.5 C-25.55390625 15.5928125 -24.8578125 15.685625 -24.140625 15.78125 C-21.69541605 16.06777357 -21.69541605 16.06777357 -18 16 C-18 16.66 -18 17.32 -18 18 C-21.19123774 19.59561887 -24.52745091 19.3799142 -28 19 C-31.58552881 17.36312815 -32.79315055 16.31027417 -35 13 C-35 11.35 -35 9.7 -35 8 C-23.45 8 -11.9 8 0 8 C0 5.36 0 2.72 0 0 Z M-33 10 C-32 12 -32 12 -32 12 Z " fill="#FEE16D" transform="translate(485,54)"/>
<path d="M0 0 C6.93 0 13.86 0 21 0 C24.66666667 7.33333333 28.33333333 14.66666667 32 22 C32.2673999 21.40461426 32.5347998 20.80922852 32.81030273 20.19580078 C34.01893529 17.505339 35.22820973 14.81516621 36.4375 12.125 C36.85837891 11.18785156 37.27925781 10.25070313 37.71289062 9.28515625 C38.11572266 8.38925781 38.51855469 7.49335937 38.93359375 6.5703125 C39.30540771 5.74289551 39.67722168 4.91547852 40.06030273 4.06298828 C40.68240177 2.69724736 41.32884346 1.34231307 42 0 C49.92 0 57.84 0 66 0 C65.34 1.65 64.68 3.3 64 5 C63.505 4.01 63.505 4.01 63 3 C63.33 2.34 63.66 1.68 64 1 C54.1 1.495 54.1 1.495 44 2 C42.84371094 4.58134766 42.84371094 4.58134766 41.6640625 7.21484375 C40.65137645 9.45588048 39.63833738 11.69675771 38.625 13.9375 C37.86316406 15.64196289 37.86316406 15.64196289 37.0859375 17.38085938 C36.59609375 18.46044922 36.10625 19.54003906 35.6015625 20.65234375 C35.15119629 21.65257568 34.70083008 22.65280762 34.23681641 23.68334961 C33 26 33 26 31 27 C29.16055374 23.04447897 27.32948447 19.08513715 25.5 15.125 C24.97535156 13.99707031 24.45070313 12.86914062 23.91015625 11.70703125 C23.16572266 10.09248047 23.16572266 10.09248047 22.40625 8.4453125 C21.94541016 7.45031738 21.48457031 6.45532227 21.00976562 5.43017578 C20 3 20 3 20 1 C13.4 1 6.8 1 0 1 C0 0.67 0 0.34 0 0 Z " fill="#FEDE5D" transform="translate(310,34)"/>
<path d="M0 0 C3.21744664 3.21744664 4.4576894 5.385499 4.625 9.875 C4.54478081 14.85588251 3.11211118 17.29901913 -0.26953125 20.84765625 C-3.80977042 23.66434289 -7.54815144 23.42340335 -11.875 23.125 C-15.97719771 21.31240101 -18.63915359 19.01702893 -20.875 15.125 C-21.62094184 10.99469243 -21.83140934 7.04173838 -19.921875 3.21484375 C-14.60109118 -3.6381911 -7.10657994 -4.63472605 0 0 Z M-17.875 4.125 C-19.60998116 7.59496232 -19.48294181 11.34007195 -18.875 15.125 C-16.60372666 18.14909364 -16.60372666 18.14909364 -13.875 20.125 C-13.545 20.455 -13.215 20.785 -12.875 21.125 C-7.66672983 21.53349178 -4.27796959 20.99204996 0.125 18.125 C2.5297926 15.17366363 2.54283852 11.83066338 2.4453125 8.08984375 C1.92887583 4.92194567 0.41253598 3.28545065 -1.875 1.125 C-8.2347981 -3.32685867 -12.96419679 -0.67159849 -17.875 4.125 Z " fill="#FEE066" transform="translate(512.875,64.875)"/>
<path d="M0 0 C3.73290476 0.02670175 5.0381884 0.18281943 8.3125 2.1875 C11.72506054 5.93030834 11.58474536 8.92270889 11.53515625 13.83203125 C11.13136394 17.34447119 9.86222617 18.99052118 7.25 21.3125 C3.46545965 23.59750549 0.73922358 23.59546766 -3.5546875 22.96484375 C-6.40664503 22.11737594 -8.23388899 20.70965143 -9.93359375 18.2578125 C-11.58521699 14.32236573 -11.64017354 10.45284205 -10.75 6.3125 C-8.3125 3.25 -8.3125 3.25 -5.75 1.3125 C-4.10962605 -0.32787395 -2.25523159 0.06338669 0 0 Z M-8.75 7.3125 C-9.61936882 11.63626349 -9.54647745 15.03813608 -7.1875 18.8125 C-3.91764866 20.82471621 -1.58797545 21.24632801 2.25 21.3125 C6.57393774 19.76454133 6.57393774 19.76454133 9.25 16.3125 C9.83492738 11.51609551 10.25314925 7.62913339 7.25 3.6875 C0.7847747 0.72427174 -4.60600191 0.96700293 -8.75 7.3125 Z " fill="#FEE069" transform="translate(219.75,48.6875)"/>
<path d="M0 0 C3.33597066 2.35080621 5.51268324 5.03562237 6.50390625 9.03125 C6.80517873 14.08485285 5.21724563 17.24654676 2 21 C-1.4094043 23.58644464 -4.8386449 23.36503115 -9 23 C-13.53664256 21.10094032 -15.84514668 18.39258561 -18 14 C-18.35310418 9.71230643 -17.47207906 6.74881506 -15.1875 3.125 C-10.53713595 -1.39249651 -6.10991165 -1.96276955 0 0 Z M-15 6 C-16.41000664 8.82001327 -16.24548451 10.87007255 -16 14 C-14.33237678 17.49406769 -13.25993978 18.82670681 -10 21 C-4.18051663 21.58070527 -4.18051663 21.58070527 0.9375 19.125 C4.07093316 15.89661432 4.39218693 13.55070291 4.359375 9.0390625 C3.7567698 5.61993302 1.63213933 4.06810948 -1 2 C-7.09844301 -1.04922151 -10.68692548 1.78722954 -15 6 Z " fill="#FEDF61" transform="translate(32,4)"/>
<path d="M0 0 C4.31646551 2.28518762 7.0976625 4.45552709 9 9 C9.59676278 12.58057666 9.73781641 14.86281507 7.72265625 17.96875 C4.40526635 21.92690714 2.60128036 23.81001758 -2.6875 24.4375 C-7.22744391 24.41264629 -9.43982485 22.53738613 -12.65234375 19.5078125 C-14.78918278 17.11703028 -15.00177994 15.97641584 -15.25 12.6875 C-14.97846303 8.6823297 -14.50326737 7.08736309 -12 4 C-7.97731702 0.69246066 -5.22654139 -0.87109023 0 0 Z M-12 7 C-12.33 7.33 -12.66 7.66 -13 8 C-13.38387346 12.99035504 -13.08713243 15.99816167 -10 20 C-6.28720382 22.47519745 -3.30296905 22.64586475 1 22 C4.08817732 20.74612994 4.08817732 20.74612994 6 18 C7.29252053 13.69695027 7.50440653 10.24774246 5.8125 6.0625 C2.86320602 2.70640685 1.00135202 2.1274448 -3.4375 1.5625 C-7.90527332 2.11117392 -9.18207829 3.60191793 -12 7 Z " fill="#FEDF61" transform="translate(300,3)"/>
<path d="M0 0 C8.25 0.33 16.5 0.66 25 1 C25 1.33 25 1.66 25 2 C15.595 2.495 15.595 2.495 6 3 C8.66678576 7.80759224 8.66678576 7.80759224 11.35571289 12.6027832 C12.31324096 14.36253266 13.15932823 16.1815256 14 18 C13.67 18.99 13.34 19.98 13 21 C8.60910032 15.14546709 5.44384289 8.45720541 2 2 C1.67 18.17 1.34 34.34 1 51 C0.67 51 0.34 51 0 51 C0 34.17 0 17.34 0 0 Z " fill="#FEE47E" transform="translate(305,34)"/>
<path d="M0 0 C0.33 0 0.66 0 1 0 C1 3.63 1 7.26 1 11 C-9.13513514 12.21621622 -9.13513514 12.21621622 -14 11 C-14.99 11.495 -14.99 11.495 -16 12 C-18.48124262 11.98837825 -20.90266182 11.90452114 -23.375 11.75 C-24.04789062 11.72292969 -24.72078125 11.69585937 -25.4140625 11.66796875 C-29.94162585 11.39168044 -31.18444309 10.86166768 -35 8 C-23.45 8 -11.9 8 0 8 C0 5.36 0 2.72 0 0 Z " fill="#FEE995" transform="translate(427,54)"/>
<path d="M0 0 C0.33 0 0.66 0 1 0 C1 5.94 1 11.88 1 18 C4.63 17.67 8.26 17.34 12 17 C12 22.28 12 27.56 12 33 C8.37 32.67 4.74 32.34 1 32 C1 38.27 1 44.54 1 51 C0.67 51 0.34 51 0 51 C0 44.4 0 37.8 0 31 C3.3 31 6.6 31 10 31 C10 27.04 10 23.08 10 19 C6.7 19 3.4 19 0 19 C0 12.73 0 6.46 0 0 Z " fill="#FEE47C" transform="translate(176,17)"/>
<path d="M0 0 C0.33 0 0.66 0 1 0 C1 28.05 1 56.1 1 85 C0.67 85 0.34 85 0 85 C0 56.95 0 28.9 0 0 Z " fill="#FEDD57" transform="translate(280,1)"/>
<path d="M0 0 C0.33 0 0.66 0 1 0 C1 28.05 1 56.1 1 85 C0.67 85 0.34 85 0 85 C0 56.95 0 28.9 0 0 Z " fill="#FEDD58" transform="translate(256,1)"/>
<path d="M0 0 C4.01885656 2.44626051 4.83594603 3.34378411 6 8 C0.06 8 -5.88 8 -12 8 C-11 3 -11 3 -9.375 1.1875 C-6.01623433 -0.49188284 -3.71022229 -0.45564133 0 0 Z M-10 4 C-10 4.66 -10 5.32 -10 6 C-5.71 6 -1.42 6 3 6 C2.67 5.01 2.34 4.02 2 3 C-4.28851034 1.70383728 -4.28851034 1.70383728 -10 4 Z " fill="#FEDF63" transform="translate(463,45)"/>
<path d="M0 0 C4.01885656 2.44626051 4.83594603 3.34378411 6 8 C0.06 8 -5.88 8 -12 8 C-11 3 -11 3 -9.375 1.1875 C-6.01623433 -0.49188284 -3.71022229 -0.45564133 0 0 Z M-10 4 C-10 4.66 -10 5.32 -10 6 C-5.71 6 -1.42 6 3 6 C2.67 5.01 2.34 4.02 2 3 C-4.28851034 1.70383728 -4.28851034 1.70383728 -10 4 Z " fill="#FEDF62" transform="translate(405,45)"/>
<path d="M0 0 C0.495 1.98 0.495 1.98 1 4 C1.66 4 2.32 4 3 4 C2.67 6.31 2.34 8.62 2 11 C0.23086176 11.22226864 -1.54044371 11.42733873 -3.3125 11.625 C-4.79169922 11.79902344 -4.79169922 11.79902344 -6.30078125 11.9765625 C-9 12 -9 12 -12 10 C-14.51502177 9.63303819 -14.51502177 9.63303819 -17.32421875 9.5859375 C-18.35224609 9.54726563 -19.38027344 9.50859375 -20.43945312 9.46875 C-22.04723633 9.42234375 -22.04723633 9.42234375 -23.6875 9.375 C-24.77095703 9.33632813 -25.85441406 9.29765625 -26.97070312 9.2578125 C-29.64696467 9.16349491 -32.32321843 9.07789995 -35 9 C-35 8.67 -35 8.34 -35 8 C-23.45 8 -11.9 8 0 8 C0 5.36 0 2.72 0 0 Z " fill="#FFEDA5" transform="translate(485,54)"/>
<path d="M0 0 C2.31 0 4.62 0 7 0 C7.0093457 0.6798999 7.01869141 1.3597998 7.02832031 2.06030273 C7.08251276 5.18672895 7.16606239 8.31173648 7.25 11.4375 C7.26417969 12.50677734 7.27835938 13.57605469 7.29296875 14.67773438 C7.50084162 21.47517731 8.32912734 27.15997531 12 33 C14.54763843 35.52858116 14.54763843 35.52858116 17 37 C15.02 37.495 15.02 37.495 13 38 C7.59935606 32.87108657 5.37809296 28.44755205 5 21 C5.08268367 14.3215997 5.50952251 7.65924969 6 1 C4.02 1 2.04 1 0 1 C0 0.67 0 0.34 0 0 Z " fill="#FEE272" transform="translate(152,48)"/>
<path d="M0 0 C0.33 0 0.66 0 1 0 C1.24331963 4.97963566 1.45794097 9.95941382 1.64697266 14.94140625 C1.71509405 16.63314123 1.79081332 18.32458912 1.87451172 20.015625 C1.99403628 22.45795825 2.08546127 24.90004729 2.171875 27.34375 C2.21439392 28.08991577 2.25691284 28.83608154 2.30072021 29.6048584 C2.45852142 35.19655733 1.10013474 39.32711652 -2 44 C-4.25 46 -4.25 46 -6 47 C-6 44 -6 44 -3.55078125 40.96875 C0.88929779 34.12773933 -0.21265354 25.35400095 -0.1875 17.5 C-0.16433143 15.80205156 -0.13896121 14.10413165 -0.11132812 12.40625 C-0.04878192 8.27072685 -0.01620572 4.13595377 0 0 Z " fill="#FEE688" transform="translate(98,36)"/>
<path d="M0 0 C2.97 0 5.94 0 9 0 C9 0.33 9 0.66 9 1 C7.02 1 5.04 1 3 1 C3 6.61 3 12.22 3 18 C3.99 18.33 4.98 18.66 6 19 C5.67 19.99 5.34 20.98 5 22 C3.35 21.67 1.7 21.34 0 21 C0 14.07 0 7.14 0 0 Z M1 1 C1 6.94 1 12.88 1 19 C1.33 19 1.66 19 2 19 C2 13.06 2 7.12 2 1 C1.67 1 1.34 1 1 1 Z " fill="#FEDD58" transform="translate(177,49)"/>
<path d="M0 0 C0.33 0 0.66 0 1 0 C1 18.48 1 36.96 1 56 C0.67 56 0.34 56 0 56 C0 37.52 0 19.04 0 0 Z " fill="#FEDF59" transform="translate(14,34)"/>
<path d="M0 0 C0.33 0 0.66 0 1 0 C1 17.16 1 34.32 1 52 C0.67 52 0.34 52 0 52 C0 34.84 0 17.68 0 0 Z " fill="#FFDD58" transform="translate(284,34)"/>
<path d="M0 0 C0.33 0 0.66 0 1 0 C1 17.16 1 34.32 1 52 C0.67 52 0.34 52 0 52 C0 34.84 0 17.68 0 0 Z " fill="#FEDD58" transform="translate(251,34)"/>
<path d="M0 0 C2.09650433 3.14475649 2.23945111 3.73471701 2.13525391 7.2878418 C2.10499619 8.57884041 2.10499619 8.57884041 2.0741272 9.8959198 C2.04193085 10.82100845 2.0097345 11.74609711 1.9765625 12.69921875 C1.95153656 13.64940384 1.92651062 14.59958893 1.90072632 15.5785675 C1.81851452 18.61524059 1.72192921 21.65126448 1.625 24.6875 C1.56676167 26.74541614 1.50945836 28.80335896 1.453125 30.86132812 C1.3129338 35.90792588 1.15984987 40.95398821 1 46 C0.67 46 0.34 46 0 46 C0 30.82 0 15.64 0 0 Z " fill="#FEDD58" transform="translate(308,40)"/>
<path d="M0 0 C0.928125 0.350625 1.85625 0.70125 2.8125 1.0625 C5.9802953 2.32382628 5.9802953 2.32382628 9 1 C10.90112305 0.97827148 10.90112305 0.97827148 13.01171875 1.12109375 C13.76904297 1.16943359 14.52636719 1.21777344 15.30664062 1.26757812 C16.09232422 1.32365234 16.87800781 1.37972656 17.6875 1.4375 C18.48478516 1.48970703 19.28207031 1.54191406 20.10351562 1.59570312 C22.06936522 1.72519022 24.03473665 1.86190041 26 2 C26 2.33 26 2.66 26 3 C20.39 3 14.78 3 9 3 C8.67 4.32 8.34 5.64 8 7 C7.278125 6.54625 6.55625 6.0925 5.8125 5.625 C3.25105919 4.14505642 0.76722011 3.02782461 -2 2 C-1.34 1.34 -0.68 0.68 0 0 Z " fill="#FEE57E" transform="translate(222,33)"/>
<path d="M0 0 C14.52 0 29.04 0 44 0 C44 0.33 44 0.66 44 1 C29.48 1 14.96 1 0 1 C0 0.67 0 0.34 0 0 Z " fill="#FEDD58" transform="translate(287,32)"/>
<path d="M0 0 C1.12890625 1.75 1.12890625 1.75 2 4 C0.16184566 9.08721633 -3.60028084 12.98304972 -8 16 C-9.32 15.34 -10.64 14.68 -12 14 C-11.0925 13.608125 -10.185 13.21625 -9.25 12.8125 C-4.62569936 10.23356311 -2.61098915 7.61912124 -0.75 2.6875 C-0.37875 1.3571875 -0.37875 1.3571875 0 0 Z " fill="#FEE16D" transform="translate(34,96)"/>
<path d="M0 0 C0.33 0 0.66 0 1 0 C1 12.54 1 25.08 1 38 C0.67 38 0.34 38 0 38 C0 25.46 0 12.92 0 0 Z " fill="#FFDD58" transform="translate(101,34)"/>
<path d="M0 0 C0.33 1.32 0.66 2.64 1 4 C1.66 4 2.32 4 3 4 C2.67 6.31 2.34 8.62 2 11 C0.23086176 11.22226864 -1.54044371 11.42733873 -3.3125 11.625 C-4.79169922 11.79902344 -4.79169922 11.79902344 -6.30078125 11.9765625 C-9 12 -9 12 -12 10 C-8.04 10 -4.08 10 0 10 C0 6.7 0 3.4 0 0 Z " fill="#FEEA93" transform="translate(485,54)"/>
<path d="M0 0 C0.33 0 0.66 0 1 0 C1 11.22 1 22.44 1 34 C0.67 34 0.34 34 0 34 C0 22.78 0 11.56 0 0 Z " fill="#FEDD58" transform="translate(41,34)"/>
<path d="M0 0 C0.33 0 0.66 0 1 0 C1 9.9 1 19.8 1 30 C0.67 30 0.34 30 0 30 C0 20.1 0 10.2 0 0 Z " fill="#FEDD58" transform="translate(65,34)"/>
<path d="M0 0 C0.33 0 0.66 0 1 0 C1 5.28 1 10.56 1 16 C3.64 16 6.28 16 9 16 C9 16.33 9 16.66 9 17 C6.03 17 3.06 17 0 17 C0 11.39 0 5.78 0 0 Z " fill="#FEDD58" transform="translate(179,16)"/>
<path d="M0 0 C0.99 0 1.98 0 3 0 C4.7578125 5.95703125 4.7578125 5.95703125 5 8 C4.01 9.485 4.01 9.485 3 11 C2.49384702 9.73160474 1.99530901 8.46016898 1.5 7.1875 C1.2215625 6.47980469 0.943125 5.77210937 0.65625 5.04296875 C0 3 0 3 0 0 Z " fill="#FEE378" transform="translate(183,67)"/>
<path d="M0 0 C7.92 0 15.84 0 24 0 C24 0.33 24 0.66 24 1 C16.08 1 8.16 1 0 1 C0 0.67 0 0.34 0 0 Z " fill="#FEDD58" transform="translate(352,32)"/>
<path d="M0 0 C1.41750563 0.11509661 2.83401169 0.24253658 4.25 0.375 C5.03890625 0.44460937 5.8278125 0.51421875 6.640625 0.5859375 C9.085877 1.01507113 10.84836903 1.78600638 13 3 C13 3.66 13 4.32 13 5 C11.39402675 4.54803755 9.79027492 4.08817673 8.1875 3.625 C6.84751953 3.24214844 6.84751953 3.24214844 5.48046875 2.8515625 C3 2 3 2 0 0 Z " fill="#FEDD57" transform="translate(129,49)"/>
<path d="M0 0 C0.33 0 0.66 0 1 0 C1 7.26 1 14.52 1 22 C0.67 22 0.34 22 0 22 C0 14.74 0 7.48 0 0 Z " fill="#FFDD59" transform="translate(78,35)"/>
<path d="M0 0 C0.33 0 0.66 0 1 0 C1 5.61 1 11.22 1 17 C-0.98 17 -2.96 17 -5 17 C-5 16.67 -5 16.34 -5 16 C-3.35 16 -1.7 16 0 16 C0 10.72 0 5.44 0 0 Z " fill="#FEDD58" transform="translate(155,16)"/>
<path d="M0 0 C2.66666667 2.66666667 5.33333333 5.33333333 8 8 C5.2980567 7.63487253 3.41609148 7.30130763 1.1875 5.6875 C0 4 0 4 0 0 Z " fill="#FEE478" transform="translate(378,74)"/>
<path d="M0 0 C6.6 0 13.2 0 20 0 C20 0.33 20 0.66 20 1 C13.4 1 6.8 1 0 1 C0 0.67 0 0.34 0 0 Z " fill="#FEDD58" transform="translate(230,32)"/>
<path d="M0 0 C6.6 0 13.2 0 20 0 C20 0.33 20 0.66 20 1 C13.4 1 6.8 1 0 1 C0 0.67 0 0.34 0 0 Z " fill="#FEDD58" transform="translate(80,32)"/>
<path d="M0 0 C6.6 0 13.2 0 20 0 C20 0.33 20 0.66 20 1 C13.4 1 6.8 1 0 1 C0 0.67 0 0.34 0 0 Z " fill="#FFDD58" transform="translate(44,32)"/>
<path d="M0 0 C6.6 0 13.2 0 20 0 C20 0.33 20 0.66 20 1 C13.4 1 6.8 1 0 1 C0 0.67 0 0.34 0 0 Z " fill="#FEDD58" transform="translate(16,32)"/>
<path d="M0 0 C6.6 0 13.2 0 20 0 C20 0.33 20 0.66 20 1 C13.4 1 6.8 1 0 1 C0 0.67 0 0.34 0 0 Z " fill="#FEDD57" transform="translate(158,13)"/>
<path d="M0 0 C6.27 0 12.54 0 19 0 C19 0.33 19 0.66 19 1 C12.73 1 6.46 1 0 1 C0 0.67 0 0.34 0 0 Z " fill="#FEDF57" transform="translate(287,88)"/>
<path d="M0 0 C6.27 0 12.54 0 19 0 C19 0.33 19 0.66 19 1 C12.73 1 6.46 1 0 1 C0 0.67 0 0.34 0 0 Z " fill="#FEDF57" transform="translate(259,88)"/>
<path d="M0 0 C6.27 0 12.54 0 19 0 C19 0.33 19 0.66 19 1 C12.73 1 6.46 1 0 1 C0 0.67 0 0.34 0 0 Z " fill="#FEDF57" transform="translate(230,88)"/>
<path d="M0 0 C1.99097846 2.98646769 2.94124926 5.59687262 4 9 C3.01 9 2.02 9 1 9 C-1.125 3.375 -1.125 3.375 0 0 Z " fill="#FEE271" transform="translate(45,69)"/>
<path d="M0 0 C2.1875 -0.3125 2.1875 -0.3125 5 0 C7.8125 2.5 7.8125 2.5 10 5 C5.75354935 5 3.61475228 3.18249194 0 1 C0 0.67 0 0.34 0 0 Z " fill="#FEE376" transform="translate(413,36)"/>
<path d="M0 0 C0 0.66 0 1.32 0 2 C-3.21451269 3.60725635 -6.43612536 3.05748185 -10 3 C-10 2.67 -10 2.34 -10 2 C-6.38026598 0.68373308 -3.90432869 0 0 0 Z " fill="#FEE582" transform="translate(467,70)"/>
<path d="M0 0 C4.95 0 9.9 0 15 0 C15 0.33 15 0.66 15 1 C10.05 1 5.1 1 0 1 C0 0.67 0 0.34 0 0 Z " fill="#FEDD58" transform="translate(64,89)"/>
<path d="M0 0 C0.33 0 0.66 0 1 0 C1.66 3.3 2.32 6.6 3 10 C2.01 10.495 2.01 10.495 1 11 C-0.17571451 7.32589215 -0.07366746 3.83070817 0 0 Z " fill="#FEDD58" transform="translate(187,63)"/>
<path d="M0 0 C0 0.33 0 0.66 0 1 C-3.3 1 -6.6 1 -10 1 C-6.1496895 -1.56687367 -4.41430237 -0.83288724 0 0 Z " fill="#FEDC56" transform="translate(464,49)"/>
<path d="M0 0 C2.72869407 0.03287583 5.2966618 0.56397771 8 1 C8 1.33 8 1.66 8 2 C4.7 2 1.4 2 -2 2 C-1.34 1.34 -0.68 0.68 0 0 Z " fill="#FEDC55" transform="translate(399,48)"/>
<path d="M0 0 C4.29 0 8.58 0 13 0 C13 0.33 13 0.66 13 1 C8.71 1 4.42 1 0 1 C0 0.67 0 0.34 0 0 Z " fill="#FEDD58" transform="translate(10,114)"/>
<path d="M0 0 C4.29 0 8.58 0 13 0 C13 0.33 13 0.66 13 1 C8.71 1 4.42 1 0 1 C0 0.67 0 0.34 0 0 Z " fill="#FEDD57" transform="translate(119,89)"/>
<path d="M0 0 C4.29 0 8.58 0 13 0 C13 0.33 13 0.66 13 1 C8.71 1 4.42 1 0 1 C0 0.67 0 0.34 0 0 Z " fill="#FFDF57" transform="translate(335,88)"/>
<path d="M0 0 C3.63 0 7.26 0 11 0 C11 0.33 11 0.66 11 1 C7.37 1 3.74 1 0 1 C0 0.67 0 0.34 0 0 Z " fill="#FEDD58" transform="translate(454,89)"/>
<path d="M0 0 C3.63 0 7.26 0 11 0 C11 0.33 11 0.66 11 1 C7.37 1 3.74 1 0 1 C0 0.67 0 0.34 0 0 Z " fill="#FFDD57" transform="translate(396,89)"/>
<path d="M0 0 C3.63 0 7.26 0 11 0 C11 0.33 11 0.66 11 1 C7.37 1 3.74 1 0 1 C0 0.67 0 0.34 0 0 Z " fill="#FEDD58" transform="translate(210,89)"/>
<path d="M0 0 C0.33 0 0.66 0 1 0 C1 2.97 1 5.94 1 9 C0.67 9 0.34 9 0 9 C-1.125 2.25 -1.125 2.25 0 0 Z " fill="#FEDD57" transform="translate(148,41)"/>
<path d="M0 0 C3.3 0 6.6 0 10 0 C10 0.33 10 0.66 10 1 C6.7 1 3.4 1 0 1 C0 0.67 0 0.34 0 0 Z " fill="#FEDD58" transform="translate(171,89)"/>
<path d="M0 0 C3.3 0 6.6 0 10 0 C10 0.33 10 0.66 10 1 C6.7 1 3.4 1 0 1 C0 0.67 0 0.34 0 0 Z " fill="#FEDD57" transform="translate(125,30)"/>
<path d="M0 0 C0.33 0 0.66 0 1 0 C1 2.97 1 5.94 1 9 C0.67 9 0.34 9 0 9 C0 6.03 0 3.06 0 0 Z " fill="#FEDD58" transform="translate(518,71)"/>
<path d="M0 0 C0.33 0 0.66 0 1 0 C1 2.97 1 5.94 1 9 C0.67 9 0.34 9 0 9 C0 6.03 0 3.06 0 0 Z " fill="#FFDD57" transform="translate(212,56)"/>
<path d="M0 0 C2.97 0 5.94 0 9 0 C9 0.33 9 0.66 9 1 C6.03 1 3.06 1 0 1 C0 0.67 0 0.34 0 0 Z " fill="#FEDD57" transform="translate(455,30)"/>
<path d="M0 0 C2.97 0 5.94 0 9 0 C9 0.33 9 0.66 9 1 C6.03 1 3.06 1 0 1 C0 0.67 0 0.34 0 0 Z " fill="#FEDD57" transform="translate(397,30)"/>
<path d="M0 0 C2.64 0 5.28 0 8 0 C8 0.33 8 0.66 8 1 C5.36 1 2.72 1 0 1 C0 0.67 0 0.34 0 0 Z " fill="#FEDD58" transform="translate(68,68)"/>
<path d="M0 0 C0.33 0 0.66 0 1 0 C1 2.64 1 5.28 1 8 C0.67 8 0.34 8 0 8 C0 5.36 0 2.72 0 0 Z " fill="#FEDD58" transform="translate(370,56)"/>
<path d="M0 0 C0.33 0 0.66 0 1 0 C1 2.64 1 5.28 1 8 C0.67 8 0.34 8 0 8 C0 5.36 0 2.72 0 0 Z " fill="#FEDD58" transform="translate(105,46)"/>
<path d="M0 0 C2.64 0 5.28 0 8 0 C8 0.33 8 0.66 8 1 C5.36 1 2.72 1 0 1 C0 0.67 0 0.34 0 0 Z " fill="#FEDD58" transform="translate(211,30)"/>
<path d="M0 0 C0.33 0 0.66 0 1 0 C1 2.64 1 5.28 1 8 C0.67 8 0.34 8 0 8 C0 5.36 0 2.72 0 0 Z " fill="#FFDC58" transform="translate(39,11)"/>
<path d="M0 0 C2.31 0 4.62 0 7 0 C7 0.33 7 0.66 7 1 C4.69 1 2.38 1 0 1 C0 0.67 0 0.34 0 0 Z " fill="#FFDD57" transform="translate(501,89)"/>
<path d="M0 0 C0.33 0 0.66 0 1 0 C1 2.31 1 4.62 1 7 C0.67 7 0.34 7 0 7 C0 4.69 0 2.38 0 0 Z " fill="#FFDD58" transform="translate(151,66)"/>
<path d="M0 0 C2.31 0 4.62 0 7 0 C7 0.33 7 0.66 7 1 C4.69 1 2.38 1 0 1 C0 0.67 0 0.34 0 0 Z " fill="#FFDD58" transform="translate(23,28)"/>
<path d="M0 0 C0.33 0 0.66 0 1 0 C1 1.98 1 3.96 1 6 C0.67 6 0.34 6 0 6 C0 4.02 0 2.04 0 0 Z " fill="#FFDD58" transform="translate(37,93)"/>
<path d="M0 0 C1.98 0 3.96 0 6 0 C6 0.33 6 0.66 6 1 C4.02 1 2.04 1 0 1 C0 0.67 0 0.34 0 0 Z " fill="#FEDD58" transform="translate(294,28)"/>
<path d="M0 0 C0.33 0 0.66 0 1 0 C1 1.98 1 3.96 1 6 C0.67 6 0.34 6 0 6 C0 4.02 0 2.04 0 0 Z " fill="#FEDD58" transform="translate(310,12)"/>
<path d="M0 0 C0.33 0 0.66 0 1 0 C1 1.98 1 3.96 1 6 C0.67 6 0.34 6 0 6 C0 4.02 0 2.04 0 0 Z " fill="#FFDD58" transform="translate(283,12)"/>
<path d="M0 0 C1.98 0 3.96 0 6 0 C6 0.33 6 0.66 6 1 C4.02 1 2.04 1 0 1 C0 0.67 0 0.34 0 0 Z " fill="#FEDD58" transform="translate(294,1)"/>
<path d="M0 0 C1.65 0 3.3 0 5 0 C5 0.33 5 0.66 5 1 C3.35 1 1.7 1 0 1 C0 0.67 0 0.34 0 0 Z " fill="#FFDD58" transform="translate(458,69)"/>
<path d="M0 0 C1.65 0 3.3 0 5 0 C5 0.33 5 0.66 5 1 C3.35 1 1.7 1 0 1 C0 0.67 0 0.34 0 0 Z " fill="#FEDD59" transform="translate(400,69)"/>
<path d="M0 0 C0.66 0.33 1.32 0.66 2 1 C1.67 1.66 1.34 2.32 1 3 C0.34 2.34 -0.32 1.68 -1 1 C-0.67 0.67 -0.34 0.34 0 0 Z " fill="#FEDD57" transform="translate(113,63)"/>
<path d="M0 0 C1.65 0 3.3 0 5 0 C5 0.33 5 0.66 5 1 C3.35 1 1.7 1 0 1 C0 0.67 0 0.34 0 0 Z " fill="#FEDD57" transform="translate(502,60)"/>
<path d="M0 0 C0.33 0 0.66 0 1 0 C1 1.65 1 3.3 1 5 C0.67 5 0.34 5 0 5 C0 3.35 0 1.7 0 0 Z " fill="#FEDD58" transform="translate(187,53)"/>
<path d="M0 0 C0.33 0 0.66 0 1 0 C1 1.65 1 3.3 1 5 C0.67 5 0.34 5 0 5 C0 3.35 0 1.7 0 0 Z " fill="#FEDC58" transform="translate(488,52)"/>
<path d="M0 0 C1.65 0 3.3 0 5 0 C5 0.33 5 0.66 5 1 C3.35 1 1.7 1 0 1 C0 0.67 0 0.34 0 0 Z " fill="#FEDE58" transform="translate(24,1)"/>
<path d="M0 0 C4 1 4 1 4 1 Z " fill="#FFDC59" transform="translate(6,113)"/>
<path d="M0 0 C1 4 1 4 1 4 Z " fill="#FFDD58" transform="translate(490,76)"/>
<path d="M0 0 C0.99 0.495 0.99 0.495 2 1 C1.34 1.66 0.68 2.32 0 3 C0 2.01 0 1.02 0 0 Z " fill="#FEDE58" transform="translate(189,74)"/>
<path d="M0 0 C1 4 1 4 1 4 Z " fill="#FFDD58" transform="translate(156,72)"/>
<path d="M0 0 C1 4 1 4 1 4 Z " fill="#FFDD58" transform="translate(490,70)"/>
<path d="M0 0 C1 4 1 4 1 4 Z " fill="#FEDD58" transform="translate(42,69)"/>
<path d="M0 0 C4 1 4 1 4 1 Z " fill="#FEDC55" transform="translate(463,68)"/>
<path d="M0 0 C4 1 4 1 4 1 Z " fill="#FEDB56" transform="translate(405,68)"/>
<path d="M0 0 C1 4 1 4 1 4 Z " fill="#FEDD58" transform="translate(371,65)"/>
<path d="M0 0 C4 1 4 1 4 1 Z " fill="#FFDE59" transform="translate(218,68)"/>
<path d="M0 0 C0.66 0.33 1.32 0.66 2 1 C1.01 1 0.02 1 -1 1 C-0.67 0.67 -0.34 0.34 0 0 Z " fill="#FFDC57" transform="translate(119,67)"/>
<path d="M0 0 C0.66 0.33 1.32 0.66 2 1 C1.01 1 0.02 1 -1 1 C-0.67 0.67 -0.34 0.34 0 0 Z " fill="#FEDD57" transform="translate(117,66)"/>
<path d="M0 0 C1 4 1 4 1 4 Z " fill="#FFDD58" transform="translate(77,62)"/>
<path d="M0 0 C0.66 0 1.32 0 2 0 C2 0.66 2 1.32 2 2 C1.34 2 0.68 2 0 2 C0 1.34 0 0.68 0 0 Z " fill="#FEDD58" transform="translate(429,49)"/>
<path d="M0 0 C4 1 4 1 4 1 Z " fill="#FEDC58" transform="translate(140,32)"/>
<path d="M0 0 C4 1 4 1 4 1 Z " fill="#FEDE58" transform="translate(465,31)"/>
<path d="M0 0 C4 1 4 1 4 1 Z " fill="#FFDD59" transform="translate(450,31)"/>
<path d="M0 0 C4 1 4 1 4 1 Z " fill="#FFDE59" transform="translate(392,31)"/>
<path d="M0 0 C4 1 4 1 4 1 Z " fill="#FEDE58" transform="translate(220,31)"/>
<path d="M0 0 C4 1 4 1 4 1 Z " fill="#FFDD58" transform="translate(206,31)"/>
<path d="M0 0 C4 1 4 1 4 1 Z " fill="#FFDD58" transform="translate(136,31)"/>
<path d="M0 0 C4 1 4 1 4 1 Z " fill="#FEDD58" transform="translate(120,31)"/>
<path d="" fill="#FFDC55" transform="translate(0,0)"/>
<path d="" fill="#FFDE59" transform="translate(0,0)"/>
<path d="M0 0 C0.33 0.66 0.66 1.32 1 2 C0.34 1.67 -0.32 1.34 -1 1 C-0.67 0.67 -0.34 0.34 0 0 Z " fill="#FEDD58" transform="translate(13,91)"/>
<path d="M0 0 C3 1 3 1 3 1 Z " fill="#FFDD59" transform="translate(467,88)"/>
<path d="M0 0 C3 1 3 1 3 1 Z " fill="#FFDD5B" transform="translate(409,88)"/>
<path d="M0 0 C3 1 3 1 3 1 Z " fill="#FEDD58" transform="translate(134,88)"/>
<path d="M0 0 C3 1 3 1 3 1 Z " fill="#FEDD58" transform="translate(114,88)"/>
<path d="M0 0 C3 1 3 1 3 1 Z " fill="#FEDD58" transform="translate(82,88)"/>
<path d="M0 0 C3 1 3 1 3 1 Z " fill="#FFDC58" transform="translate(59,88)"/>
<path d="M0 0 C3 1 3 1 3 1 Z " fill="#FEDD59" transform="translate(137,87)"/>
<path d="M0 0 C3 1 3 1 3 1 Z " fill="#FFDC59" transform="translate(111,87)"/>
<path d="M0 0 C3 1 3 1 3 1 Z " fill="#FFDD58" transform="translate(85,87)"/>
<path d="" fill="#FEDD58" transform="translate(0,0)"/>
<path d="" fill="#FFDD58" transform="translate(0,0)"/>
<path d="M0 0 C0.99 0.495 0.99 0.495 2 1 C1.01 1.495 1.01 1.495 0 2 C0 1.34 0 0.68 0 0 Z " fill="#FEDD58" transform="translate(430,72)"/>
<path d="" fill="#FFDD58" transform="translate(0,0)"/>
<path d="" fill="#FEDD58" transform="translate(0,0)"/>
<path d="" fill="#FEDD57" transform="translate(0,0)"/>
<path d="" fill="#FFDD59" transform="translate(0,0)"/>
<path d="M0 0 C3 1 3 1 3 1 Z " fill="#FEDD58" transform="translate(507,61)"/>
<path d="" fill="#FEDC58" transform="translate(0,0)"/>
<path d="" fill="#FFDD58" transform="translate(0,0)"/>
<path d="M0 0 C3 1 3 1 3 1 Z " fill="#FFDD57" transform="translate(221,52)"/>
<path d="M0 0 C3 1 3 1 3 1 Z " fill="#FFDE58" transform="translate(216,52)"/>
<path d="" fill="#FEDB56" transform="translate(0,0)"/>
<path d="M0 0 C3 1 3 1 3 1 Z " fill="#FEDD58" transform="translate(469,32)"/>
<path d="M0 0 C3 1 3 1 3 1 Z " fill="#FFDC59" transform="translate(447,32)"/>
<path d="M0 0 C3 1 3 1 3 1 Z " fill="#FFDC59" transform="translate(411,32)"/>
<path d="M0 0 C3 1 3 1 3 1 Z " fill="#FFDD58" transform="translate(389,32)"/>
<path d="M0 0 C3 1 3 1 3 1 Z " fill="#FFDD58" transform="translate(117,32)"/>
<path d="M0 0 C3 1 3 1 3 1 Z " fill="#FFDD58" transform="translate(408,31)"/>
<path d="" fill="#FFDC58" transform="translate(0,0)"/>
<path d="M0 0 C2 1 2 1 2 1 Z " fill="#FFDD58" transform="translate(23,113)"/>
<path d="M0 0 C2 1 2 1 2 1 Z " fill="#FFDC57" transform="translate(4,112)"/>
<path d="M0 0 C2 1 2 1 2 1 Z " fill="#FFDD56" transform="translate(27,111)"/>
<path d="M0 0 C2 1 2 1 2 1 Z " fill="#FFDD5A" transform="translate(2,111)"/>
<path d="" fill="#FFDD58" transform="translate(0,0)"/>
<path d="" fill="#FEDE58" transform="translate(0,0)"/>
<path d="" fill="#FFDC5A" transform="translate(0,0)"/>
<path d="" fill="#FEDD58" transform="translate(0,0)"/>
<path d="" fill="#FFDD58" transform="translate(0,0)"/>
<path d="" fill="#FFDD58" transform="translate(0,0)"/>
<path d="" fill="#FEDE58" transform="translate(0,0)"/>
<path d="M0 0 C2 1 2 1 2 1 Z " fill="#FFDD59" transform="translate(9,91)"/>
<path d="M0 0 C2 1 2 1 2 1 Z " fill="#FFDD58" transform="translate(7,90)"/>
<path d="M0 0 C2 1 2 1 2 1 Z " fill="#FFDD58" transform="translate(498,88)"/>
<path d="M0 0 C2 1 2 1 2 1 Z " fill="#FEDC58" transform="translate(450,88)"/>
<path d="M0 0 C2 1 2 1 2 1 Z " fill="#FFDD59" transform="translate(392,88)"/>
<path d="M0 0 C2 1 2 1 2 1 Z " fill="#FFDD57" transform="translate(222,88)"/>
<path d="M0 0 C2 1 2 1 2 1 Z " fill="#FFDC58" transform="translate(206,88)"/>
<path d="M0 0 C2 1 2 1 2 1 Z " fill="#FFDD58" transform="translate(183,88)"/>
<path d="M0 0 C2 1 2 1 2 1 Z " fill="#FFDD59" transform="translate(471,87)"/>
<path d="M0 0 C2 1 2 1 2 1 Z " fill="#FEDD59" transform="translate(447,87)"/>
<path d="M0 0 C2 1 2 1 2 1 Z " fill="#FEDD59" transform="translate(413,87)"/>
<path d="M0 0 C2 1 2 1 2 1 Z " fill="#FFDC59" transform="translate(389,87)"/>
<path d="M0 0 C2 1 2 1 2 1 Z " fill="#FEDC59" transform="translate(224,87)"/>
<path d="M0 0 C2 1 2 1 2 1 Z " fill="#FFDD58" transform="translate(203,87)"/>
<path d="M0 0 C2 1 2 1 2 1 Z " fill="#FFDC58" transform="translate(186,87)"/>
<path d="M0 0 C2 1 2 1 2 1 Z " fill="#FFDD59" transform="translate(56,87)"/>
<path d="M0 0 C2 1 2 1 2 1 Z " fill="#FFDB53" transform="translate(495,86)"/>
<path d="M0 0 C2 1 2 1 2 1 Z " fill="#FEDD56" transform="translate(445,86)"/>
<path d="M0 0 C2 1 2 1 2 1 Z " fill="#FFDB55" transform="translate(387,86)"/>
<path d="M0 0 C2 1 2 1 2 1 Z " fill="#FFDC58" transform="translate(226,86)"/>
<path d="M0 0 C2 1 2 1 2 1 Z " fill="#FEDD58" transform="translate(188,86)"/>
<path d="M0 0 C2 1 2 1 2 1 Z " fill="#FFDD58" transform="translate(140,86)"/>
<path d="M0 0 C2 1 2 1 2 1 Z " fill="#FFDD58" transform="translate(109,86)"/>
<path d="M0 0 C2 1 2 1 2 1 Z " fill="#FFDD57" transform="translate(88,86)"/>
<path d="M0 0 C2 1 2 1 2 1 Z " fill="#FFDC57" transform="translate(443,85)"/>
<path d="M0 0 C2 1 2 1 2 1 Z " fill="#FFDC58" transform="translate(385,85)"/>
<path d="" fill="#FFDA58" transform="translate(0,0)"/>
<path d="M0 0 C2 1 2 1 2 1 Z " fill="#FEDD58" transform="translate(90,85)"/>
<path d="M0 0 C2 1 2 1 2 1 Z " fill="#FFDC56" transform="translate(477,84)"/>
<path d="M0 0 C2 1 2 1 2 1 Z " fill="#FFDD56" transform="translate(419,84)"/>
<path d="" fill="#FFDD58" transform="translate(0,0)"/>
<path d="M0 0 C2 1 2 1 2 1 Z " fill="#FFDB54" transform="translate(440,83)"/>
<path d="M0 0 C2 1 2 1 2 1 Z " fill="#FFDD55" transform="translate(382,83)"/>
<path d="" fill="#FEDC58" transform="translate(0,0)"/>
<path d="M0 0 C2 1 2 1 2 1 Z " fill="#FED443" transform="translate(196,82)"/>
<path d="" fill="#FFDD58" transform="translate(0,0)"/>
<path d="" fill="#FFDE58" transform="translate(0,0)"/>
<path d="" fill="#FFDC57" transform="translate(0,0)"/>
<path d="" fill="#FEDE56" transform="translate(0,0)"/>
<path d="" fill="#FFDC54" transform="translate(0,0)"/>
<path d="" fill="#FFDD53" transform="translate(0,0)"/>
<path d="" fill="#FFDD55" transform="translate(0,0)"/>
<path d="" fill="#FFDD59" transform="translate(0,0)"/>
<path d="" fill="#FFDD59" transform="translate(0,0)"/>
<path d="" fill="#FEDA50" transform="translate(0,0)"/>
<path d="" fill="#FFDC54" transform="translate(0,0)"/>
<path d="" fill="#FEDC58" transform="translate(0,0)"/>
<path d="" fill="#FFDE57" transform="translate(0,0)"/>
<path d="" fill="#FEDC58" transform="translate(0,0)"/>
<path d="" fill="#FFDD5A" transform="translate(0,0)"/>
<path d="" fill="#FEDD58" transform="translate(0,0)"/>
<path d="" fill="#FFDE58" transform="translate(0,0)"/>
<path d="" fill="#FFDE5A" transform="translate(0,0)"/>
<path d="" fill="#FFDB57" transform="translate(0,0)"/>
<path d="" fill="#FEDC57" transform="translate(0,0)"/>
<path d="" fill="#FEDD58" transform="translate(0,0)"/>
<path d="" fill="#FFDE58" transform="translate(0,0)"/>
<path d="" fill="#FFDC55" transform="translate(0,0)"/>
<path d="" fill="#FEDC57" transform="translate(0,0)"/>
<path d="M0 0 C2 1 2 1 2 1 Z " fill="#FEDC58" transform="translate(485,70)"/>
<path d="" fill="#FFDE59" transform="translate(0,0)"/>
<path d="M0 0 C2 1 2 1 2 1 Z " fill="#FEDE57" transform="translate(427,70)"/>
<path d="" fill="#FFDD58" transform="translate(0,0)"/>
<path d="" fill="#FFDC56" transform="translate(0,0)"/>
<path d="" fill="#FFDD58" transform="translate(0,0)"/>
<path d="M0 0 C2 1 2 1 2 1 Z " fill="#FEDC55" transform="translate(483,69)"/>
<path d="M0 0 C2 1 2 1 2 1 Z " fill="#FEDD57" transform="translate(425,69)"/>
<path d="" fill="#FEDE59" transform="translate(0,0)"/>
<path d="M0 0 C2 1 2 1 2 1 Z " fill="#FEDC56" transform="translate(481,68)"/>
<path d="M0 0 C2 1 2 1 2 1 Z " fill="#FFDD59" transform="translate(456,68)"/>
<path d="M0 0 C2 1 2 1 2 1 Z " fill="#FFDC54" transform="translate(423,68)"/>
<path d="M0 0 C2 1 2 1 2 1 Z " fill="#FFDD59" transform="translate(398,68)"/>
<path d="M0 0 C2 1 2 1 2 1 Z " fill="#FFDC57" transform="translate(479,67)"/>
<path d="" fill="#FFDD56" transform="translate(0,0)"/>
<path d="M0 0 C2 1 2 1 2 1 Z " fill="#FFDE55" transform="translate(421,67)"/>
<path d="" fill="#FFDD56" transform="translate(0,0)"/>
<path d="" fill="#FEDD58" transform="translate(0,0)"/>
<path d="M0 0 C2 1 2 1 2 1 Z " fill="#FFDD58" transform="translate(223,67)"/>
<path d="M0 0 C2 1 2 1 2 1 Z " fill="#FFDD59" transform="translate(215,67)"/>
<path d="M0 0 C2 1 2 1 2 1 Z " fill="#FEDF59" transform="translate(477,66)"/>
<path d="M0 0 C2 1 2 1 2 1 Z " fill="#FFDB5A" transform="translate(419,66)"/>
<path d="" fill="#FFDD58" transform="translate(0,0)"/>
<path d="" fill="#FEDD58" transform="translate(0,0)"/>
<path d="" fill="#FFDD58" transform="translate(0,0)"/>
<path d="M0 0 C2 1 2 1 2 1 Z " fill="#FFDD59" transform="translate(510,62)"/>
<path d="M0 0 C2 1 2 1 2 1 Z " fill="#FFDC59" transform="translate(497,62)"/>
<path d="" fill="#FFDE5B" transform="translate(0,0)"/>
<path d="M0 0 C2 1 2 1 2 1 Z " fill="#FFDD57" transform="translate(499,61)"/>
<path d="" fill="#FEDD59" transform="translate(0,0)"/>
<path d="" fill="#FFDD56" transform="translate(0,0)"/>
<path d="" fill="#FFD94D" transform="translate(0,0)"/>
<path d="" fill="#FFDB56" transform="translate(0,0)"/>
<path d="" fill="#FEDD58" transform="translate(0,0)"/>
<path d="" fill="#FFDD58" transform="translate(0,0)"/>
<path d="" fill="#FEDC58" transform="translate(0,0)"/>
<path d="" fill="#FFDC57" transform="translate(0,0)"/>
<path d="" fill="#FFDD58" transform="translate(0,0)"/>
<path d="M0 0 C2 1 2 1 2 1 Z " fill="#FFDE57" transform="translate(224,53)"/>
<path d="M0 0 C2 1 2 1 2 1 Z " fill="#FEDD58" transform="translate(214,53)"/>
<path d="" fill="#FEDC56" transform="translate(0,0)"/>
<path d="" fill="#FFDE59" transform="translate(0,0)"/>
<path d="" fill="#FFDC58" transform="translate(0,0)"/>
<path d="" fill="#FFDD5A" transform="translate(0,0)"/>
<path d="" fill="#FEDD59" transform="translate(0,0)"/>
<path d="" fill="#FFDD58" transform="translate(0,0)"/>
<path d="" fill="#FEDD59" transform="translate(0,0)"/>
<path d="" fill="#FFDD58" transform="translate(0,0)"/>
<path d="" fill="#FEDD58" transform="translate(0,0)"/>
<path d="" fill="#FFDD57" transform="translate(0,0)"/>
<path d="" fill="#FFDD58" transform="translate(0,0)"/>
<path d="" fill="#FFDD57" transform="translate(0,0)"/>
<path d="" fill="#FEDD58" transform="translate(0,0)"/>
<path d="" fill="#FEDE57" transform="translate(0,0)"/>
<path d="" fill="#FFDD58" transform="translate(0,0)"/>
<path d="" fill="#FFDE58" transform="translate(0,0)"/>
<path d="" fill="#FEDD59" transform="translate(0,0)"/>
<path d="" fill="#FFDD58" transform="translate(0,0)"/>
<path d="" fill="#FFDD57" transform="translate(0,0)"/>
<path d="" fill="#FFDD58" transform="translate(0,0)"/>
<path d="" fill="#FEDB58" transform="translate(0,0)"/>
<path d="" fill="#FFDC57" transform="translate(0,0)"/>
<path d="" fill="#FFDD58" transform="translate(0,0)"/>
<path d="" fill="#FFDD58" transform="translate(0,0)"/>
<path d="" fill="#FEDD58" transform="translate(0,0)"/>
<path d="" fill="#FFDC59" transform="translate(0,0)"/>
<path d="" fill="#FFDE59" transform="translate(0,0)"/>
<path d="" fill="#FFDE58" transform="translate(0,0)"/>
<path d="" fill="#FFDE58" transform="translate(0,0)"/>
<path d="" fill="#FEDD59" transform="translate(0,0)"/>
<path d="" fill="#FFDA52" transform="translate(0,0)"/>
<path d="" fill="#FFDD56" transform="translate(0,0)"/>
<path d="" fill="#FFD94F" transform="translate(0,0)"/>
<path d="" fill="#FEDC50" transform="translate(0,0)"/>
<path d="" fill="#FFDC58" transform="translate(0,0)"/>
<path d="" fill="#FEDD59" transform="translate(0,0)"/>
<path d="" fill="#FFDE59" transform="translate(0,0)"/>
<path d="" fill="#FFDA54" transform="translate(0,0)"/>
<path d="" fill="#FFDD58" transform="translate(0,0)"/>
<path d="M0 0 C2 1 2 1 2 1 Z " fill="#FFDA51" transform="translate(438,38)"/>
<path d="" fill="#FEDD58" transform="translate(0,0)"/>
<path d="" fill="#FEDD57" transform="translate(0,0)"/>
<path d="M0 0 C2 1 2 1 2 1 Z " fill="#FFDC4D" transform="translate(110,37)"/>
<path d="" fill="#FFDD58" transform="translate(0,0)"/>
<path d="M0 0 C2 1 2 1 2 1 Z " fill="#FFDD59" transform="translate(474,34)"/>
<path d="M0 0 C2 1 2 1 2 1 Z " fill="#FFDD58" transform="translate(416,34)"/>
<path d="M0 0 C2 1 2 1 2 1 Z " fill="#FFDE5A" transform="translate(200,34)"/>
<path d="M0 0 C2 1 2 1 2 1 Z " fill="#FFDD58" transform="translate(472,33)"/>
<path d="M0 0 C2 1 2 1 2 1 Z " fill="#FEDD58" transform="translate(445,33)"/>
<path d="M0 0 C2 1 2 1 2 1 Z " fill="#FEDD58" transform="translate(414,33)"/>
<path d="M0 0 C2 1 2 1 2 1 Z " fill="#FFDD58" transform="translate(387,33)"/>
<path d="M0 0 C2 1 2 1 2 1 Z " fill="#FFDD58" transform="translate(226,33)"/>
<path d="M0 0 C2 1 2 1 2 1 Z " fill="#FEDC57" transform="translate(202,33)"/>
<path d="M0 0 C2 1 2 1 2 1 Z " fill="#FEDC57" transform="translate(144,33)"/>
<path d="M0 0 C2 1 2 1 2 1 Z " fill="#FFDD58" transform="translate(224,32)"/>
<path d="M0 0 C2 1 2 1 2 1 Z " fill="#FFDD58" transform="translate(204,32)"/>
<path d="M0 0 C2 1 2 1 2 1 Z " fill="#FEDD57" transform="translate(301,27)"/>
<path d="M0 0 C2 1 2 1 2 1 Z " fill="#FFDD57" transform="translate(291,27)"/>
<path d="M0 0 C2 1 2 1 2 1 Z " fill="#FFDC57" transform="translate(30,27)"/>
<path d="M0 0 C2 1 2 1 2 1 Z " fill="#FFDD58" transform="translate(20,27)"/>
<path d="M0 0 C2 1 2 1 2 1 Z " fill="#FEDC57" transform="translate(32,26)"/>
<path d="M0 0 C2 1 2 1 2 1 Z " fill="#FFDC4D" transform="translate(304,25)"/>
<path d="M0 0 C2 1 2 1 2 1 Z " fill="#FFDA48" transform="translate(288,25)"/>
<path d="" fill="#FFDC52" transform="translate(0,0)"/>
<path d="" fill="#FFDA52" transform="translate(0,0)"/>
<path d="" fill="#FFDD57" transform="translate(0,0)"/>
<path d="" fill="#FFDD58" transform="translate(0,0)"/>
<path d="" fill="#FFDD59" transform="translate(0,0)"/>
<path d="" fill="#FFDE57" transform="translate(0,0)"/>
<path d="" fill="#FFDD58" transform="translate(0,0)"/>
<path d="" fill="#FFDD59" transform="translate(0,0)"/>
<path d="" fill="#FFDD58" transform="translate(0,0)"/>
<path d="M0 0 C2 1 2 1 2 1 Z " fill="#FEDB52" transform="translate(33,4)"/>
<path d="M0 0 C2 1 2 1 2 1 Z " fill="#FFDD58" transform="translate(19,3)"/>
<path d="M0 0 C2 1 2 1 2 1 Z " fill="#FFDC59" transform="translate(300,2)"/>
<path d="M0 0 C2 1 2 1 2 1 Z " fill="#FFDE5B" transform="translate(292,2)"/>
<path d="M0 0 C2 1 2 1 2 1 Z " fill="#FEDD58" transform="translate(21,2)"/>
<path d="" fill="#FFDD59" transform="translate(0,0)"/>
<path d="" fill="#FFDD57" transform="translate(0,0)"/>
<path d="" fill="#FFDB52" transform="translate(0,0)"/>
<path d="" fill="#FFDA4C" transform="translate(0,0)"/>
<path d="" fill="#FFDC54" transform="translate(0,0)"/>
<path d="" fill="#FFDD58" transform="translate(0,0)"/>
<path d="" fill="#FFDD58" transform="translate(0,0)"/>
<path d="" fill="#FFDD58" transform="translate(0,0)"/>
<path d="" fill="#FFDE5A" transform="translate(0,0)"/>
<path d="" fill="#FFDE5A" transform="translate(0,0)"/>
<path d="" fill="#FFDD5A" transform="translate(0,0)"/>
<path d="" fill="#FFDC54" transform="translate(0,0)"/>
<path d="" fill="#FFDE59" transform="translate(0,0)"/>
<path d="" fill="#FEDE59" transform="translate(0,0)"/>
<path d="" fill="#FFDE58" transform="translate(0,0)"/>
<path d="" fill="#FEDD59" transform="translate(0,0)"/>
<path d="" fill="#FFDE59" transform="translate(0,0)"/>
<path d="" fill="#FED33A" transform="translate(0,0)"/>
<path d="" fill="#FFDE5A" transform="translate(0,0)"/>
<path d="" fill="#FFDD58" transform="translate(0,0)"/>
<path d="" fill="#FFDE57" transform="translate(0,0)"/>
<path d="" fill="#FFDE5A" transform="translate(0,0)"/>
<path d="" fill="#FEDE58" transform="translate(0,0)"/>
<path d="" fill="#FFDC57" transform="translate(0,0)"/>
<path d="" fill="#FFDD59" transform="translate(0,0)"/>
<path d="" fill="#FEDD57" transform="translate(0,0)"/>
<path d="" fill="#FFDE58" transform="translate(0,0)"/>
<path d="" fill="#FFD63C" transform="translate(0,0)"/>
<path d="" fill="#FFDD5A" transform="translate(0,0)"/>
<path d="" fill="#FFDE58" transform="translate(0,0)"/>
<path d="" fill="#FEDD59" transform="translate(0,0)"/>
<path d="" fill="#FFDE58" transform="translate(0,0)"/>
<path d="" fill="#FFDB53" transform="translate(0,0)"/>
<path d="" fill="#FFDB54" transform="translate(0,0)"/>
<path d="" fill="#FFDE5A" transform="translate(0,0)"/>
<path d="" fill="#FEDE59" transform="translate(0,0)"/>
<path d="" fill="#FFDD58" transform="translate(0,0)"/>
<path d="" fill="#FFDB52" transform="translate(0,0)"/>
<path d="" fill="#FFDD59" transform="translate(0,0)"/>
<path d="" fill="#FEDD57" transform="translate(0,0)"/>
<path d="" fill="#FFDD59" transform="translate(0,0)"/>
<path d="" fill="#FEDB4D" transform="translate(0,0)"/>
<path d="" fill="#FFDC53" transform="translate(0,0)"/>
<path d="" fill="#FEDE5A" transform="translate(0,0)"/>
<path d="" fill="#FFDC59" transform="translate(0,0)"/>
<path d="" fill="#FEDD58" transform="translate(0,0)"/>
<path d="" fill="#FFDE5C" transform="translate(0,0)"/>
<path d="" fill="#FFDE58" transform="translate(0,0)"/>
<path d="" fill="#FFDD57" transform="translate(0,0)"/>
<path d="" fill="#FFDC53" transform="translate(0,0)"/>
<path d="" fill="#FEDE59" transform="translate(0,0)"/>
<path d="" fill="#FFDB52" transform="translate(0,0)"/>
<path d="" fill="#FFDD5A" transform="translate(0,0)"/>
<path d="" fill="#FFDD57" transform="translate(0,0)"/>
<path d="" fill="#FFDE5B" transform="translate(0,0)"/>
<path d="" fill="#FFDA55" transform="translate(0,0)"/>
<path d="" fill="#FFDA54" transform="translate(0,0)"/>
<path d="" fill="#FFDE5B" transform="translate(0,0)"/>
<path d="" fill="#FFD94C" transform="translate(0,0)"/>
<path d="" fill="#FFDC59" transform="translate(0,0)"/>
<path d="" fill="#FED847" transform="translate(0,0)"/>
<path d="" fill="#FFDD5A" transform="translate(0,0)"/>
<path d="" fill="#FFDD5A" transform="translate(0,0)"/>
<path d="" fill="#FFDF5B" transform="translate(0,0)"/>
<path d="" fill="#FFDD59" transform="translate(0,0)"/>
<path d="" fill="#FFDC55" transform="translate(0,0)"/>
<path d="" fill="#FFDE5A" transform="translate(0,0)"/>
<path d="" fill="#FFD84A" transform="translate(0,0)"/>
<path d="" fill="#FFDC59" transform="translate(0,0)"/>
<path d="" fill="#FFD638" transform="translate(0,0)"/>
<path d="" fill="#FFDD5A" transform="translate(0,0)"/>
<path d="" fill="#FFDD58" transform="translate(0,0)"/>
<path d="" fill="#FFDC4F" transform="translate(0,0)"/>
<path d="" fill="#FEDD59" transform="translate(0,0)"/>
<path d="" fill="#FFDB48" transform="translate(0,0)"/>
<path d="" fill="#FFDD5A" transform="translate(0,0)"/>
<path d="" fill="#FEDD5A" transform="translate(0,0)"/>
<path d="" fill="#FFDD58" transform="translate(0,0)"/>
<path d="" fill="#FFDD5A" transform="translate(0,0)"/>
<path d="" fill="#FFDE58" transform="translate(0,0)"/>
<path d="" fill="#FFDE5A" transform="translate(0,0)"/>
<path d="" fill="#FFDD51" transform="translate(0,0)"/>
<path d="" fill="#FFDE5A" transform="translate(0,0)"/>
<path d="" fill="#FEDD50" transform="translate(0,0)"/>
<path d="" fill="#FFDD59" transform="translate(0,0)"/>
<path d="" fill="#FFDD59" transform="translate(0,0)"/>
<path d="" fill="#FFDD57" transform="translate(0,0)"/>
<path d="" fill="#FFDC59" transform="translate(0,0)"/>
<path d="" fill="#FEDD5A" transform="translate(0,0)"/>
<path d="" fill="#FFDD56" transform="translate(0,0)"/>
<path d="" fill="#FEDC56" transform="translate(0,0)"/>
<path d="" fill="#FFDE5A" transform="translate(0,0)"/>
<path d="" fill="#FFDE59" transform="translate(0,0)"/>
<path d="" fill="#FFDE5B" transform="translate(0,0)"/>
<path d="" fill="#FFDD5A" transform="translate(0,0)"/>
<path d="" fill="#FFDD58" transform="translate(0,0)"/>
<path d="" fill="#FFDE58" transform="translate(0,0)"/>
<path d="" fill="#FFDD59" transform="translate(0,0)"/>
<path d="" fill="#FFDC59" transform="translate(0,0)"/>
<path d="" fill="#FFDD58" transform="translate(0,0)"/>
<path d="" fill="#FFDD59" transform="translate(0,0)"/>
<path d="" fill="#FFDC59" transform="translate(0,0)"/>
<path d="" fill="#FFDD58" transform="translate(0,0)"/>
<path d="" fill="#FFDD59" transform="translate(0,0)"/>
<path d="" fill="#FFDD58" transform="translate(0,0)"/>
<path d="" fill="#FFDD58" transform="translate(0,0)"/>
<path d="" fill="#FEDD58" transform="translate(0,0)"/>
<path d="" fill="#FFDE58" transform="translate(0,0)"/>
<path d="" fill="#FFDD5A" transform="translate(0,0)"/>
<path d="" fill="#FFDE59" transform="translate(0,0)"/>
<path d="" fill="#FFDD59" transform="translate(0,0)"/>
<path d="" fill="#FFDE59" transform="translate(0,0)"/>
<path d="" fill="#FFDD58" transform="translate(0,0)"/>
<path d="" fill="#FFDC58" transform="translate(0,0)"/>
<path d="" fill="#FFDD58" transform="translate(0,0)"/>
<path d="" fill="#FFDD5A" transform="translate(0,0)"/>
<path d="" fill="#FFDD59" transform="translate(0,0)"/>
<path d="" fill="#FFDF59" transform="translate(0,0)"/>
<path d="" fill="#FFDE5A" transform="translate(0,0)"/>
<path d="" fill="#FFDC57" transform="translate(0,0)"/>
<path d="" fill="#FEDE59" transform="translate(0,0)"/>
<path d="" fill="#FFDD59" transform="translate(0,0)"/>
<path d="" fill="#FFDD57" transform="translate(0,0)"/>
<path d="" fill="#FFDE59" transform="translate(0,0)"/>
<path d="" fill="#FFDD59" transform="translate(0,0)"/>
<path d="" fill="#FFDD58" transform="translate(0,0)"/>
<path d="" fill="#FFDD57" transform="translate(0,0)"/>
<path d="" fill="#FFDE5A" transform="translate(0,0)"/>
<path d="" fill="#FFDD59" transform="translate(0,0)"/>
<path d="" fill="#FFDC55" transform="translate(0,0)"/>
<path d="" fill="#FFDE59" transform="translate(0,0)"/>
<path d="" fill="#FFDE59" transform="translate(0,0)"/>
<path d="" fill="#FFDD59" transform="translate(0,0)"/>
<path d="" fill="#FFDD58" transform="translate(0,0)"/>
<path d="" fill="#FFDD5B" transform="translate(0,0)"/>
<path d="" fill="#FFDD58" transform="translate(0,0)"/>
<path d="" fill="#FFDC57" transform="translate(0,0)"/>
<path d="" fill="#FFDD5A" transform="translate(0,0)"/>
<path d="" fill="#FEDD5A" transform="translate(0,0)"/>
<path d="" fill="#FFDB59" transform="translate(0,0)"/>
<path d="" fill="#FFDD59" transform="translate(0,0)"/>
<path d="" fill="#FFDE5A" transform="translate(0,0)"/>
<path d="" fill="#FFDE5A" transform="translate(0,0)"/>
<path d="" fill="#FFDE5B" transform="translate(0,0)"/>
<path d="" fill="#FFDD59" transform="translate(0,0)"/>
<path d="" fill="#FFDD5C" transform="translate(0,0)"/>
<path d="" fill="#FFDE59" transform="translate(0,0)"/>
<path d="" fill="#FFDD58" transform="translate(0,0)"/>
<path d="" fill="#FFDD59" transform="translate(0,0)"/>
<path d="" fill="#FFDE5A" transform="translate(0,0)"/>
<path d="" fill="#FFDC58" transform="translate(0,0)"/>
<path d="" fill="#FFDE59" transform="translate(0,0)"/>
<path d="" fill="#FEDD5A" transform="translate(0,0)"/>
<path d="" fill="#FFD954" transform="translate(0,0)"/>
<path d="" fill="#FFDC57" transform="translate(0,0)"/>
<path d="" fill="#FEDD57" transform="translate(0,0)"/>
<path d="" fill="#FEDE59" transform="translate(0,0)"/>
<path d="" fill="#FFDE5A" transform="translate(0,0)"/>
<path d="" fill="#FFDC58" transform="translate(0,0)"/>
<path d="" fill="#FFDD59" transform="translate(0,0)"/>
<path d="" fill="#FFDD58" transform="translate(0,0)"/>
<path d="" fill="#FEDC57" transform="translate(0,0)"/>
<path d="" fill="#FEDE5A" transform="translate(0,0)"/>
<path d="" fill="#FEDE59" transform="translate(0,0)"/>
<path d="" fill="#FFDE5A" transform="translate(0,0)"/>
<path d="" fill="#FFDC58" transform="translate(0,0)"/>
<path d="" fill="#FFDC59" transform="translate(0,0)"/>
<path d="" fill="#FFDD59" transform="translate(0,0)"/>
<path d="" fill="#FEDC57" transform="translate(0,0)"/>
<path d="" fill="#FFDD59" transform="translate(0,0)"/>
<path d="" fill="#FFDC57" transform="translate(0,0)"/>
<path d="" fill="#FEDE58" transform="translate(0,0)"/>
<path d="" fill="#FEDC57" transform="translate(0,0)"/>
<path d="" fill="#FFDC51" transform="translate(0,0)"/>
<path d="" fill="#FFDC55" transform="translate(0,0)"/>
<path d="" fill="#FFDC53" transform="translate(0,0)"/>
<path d="" fill="#FFDD59" transform="translate(0,0)"/>
<path d="" fill="#FFDF5C" transform="translate(0,0)"/>
<path d="" fill="#FFDD5B" transform="translate(0,0)"/>
<path d="" fill="#FFDC57" transform="translate(0,0)"/>
<path d="" fill="#FEDE59" transform="translate(0,0)"/>
<path d="" fill="#FFDF5A" transform="translate(0,0)"/>
<path d="" fill="#FEDF5A" transform="translate(0,0)"/>
<path d="" fill="#FFDD5B" transform="translate(0,0)"/>
<path d="" fill="#FFDE5B" transform="translate(0,0)"/>
<path d="" fill="#FFDC54" transform="translate(0,0)"/>
<path d="" fill="#FFDD4C" transform="translate(0,0)"/>
<path d="" fill="#FFDF5A" transform="translate(0,0)"/>
<path d="" fill="#FFDD5B" transform="translate(0,0)"/>
<path d="" fill="#FFD94C" transform="translate(0,0)"/>
<path d="" fill="#FFDB54" transform="translate(0,0)"/>
<path d="" fill="#FEDF5A" transform="translate(0,0)"/>
<path d="" fill="#FFDA54" transform="translate(0,0)"/>
<path d="" fill="#FFDE5A" transform="translate(0,0)"/>
<path d="" fill="#FFDA54" transform="translate(0,0)"/>
<path d="" fill="#FFDE58" transform="translate(0,0)"/>
<path d="" fill="#FFDC56" transform="translate(0,0)"/>
<path d="" fill="#FFDB56" transform="translate(0,0)"/>
<path d="" fill="#FFDD58" transform="translate(0,0)"/>
<path d="" fill="#FFDB53" transform="translate(0,0)"/>
<path d="" fill="#FFDC59" transform="translate(0,0)"/>
<path d="" fill="#FFDE58" transform="translate(0,0)"/>
<path d="" fill="#FFDC51" transform="translate(0,0)"/>
<path d="" fill="#FFDE5A" transform="translate(0,0)"/>
<path d="" fill="#FFDD5A" transform="translate(0,0)"/>
<path d="" fill="#FFDD5A" transform="translate(0,0)"/>
<path d="" fill="#FFDE5A" transform="translate(0,0)"/>
<path d="" fill="#FFDD58" transform="translate(0,0)"/>
<path d="" fill="#FFDE5A" transform="translate(0,0)"/>
<path d="" fill="#FFDC58" transform="translate(0,0)"/>
<path d="" fill="#FFDE58" transform="translate(0,0)"/>
<path d="" fill="#FFDD59" transform="translate(0,0)"/>
<path d="" fill="#FEDE58" transform="translate(0,0)"/>
<path d="" fill="#FFDD58" transform="translate(0,0)"/>
<path d="" fill="#FFDF5C" transform="translate(0,0)"/>
<path d="" fill="#FFDE59" transform="translate(0,0)"/>
<path d="" fill="#FFDD55" transform="translate(0,0)"/>
<path d="" fill="#FFDD56" transform="translate(0,0)"/>
<path d="" fill="#FFDD57" transform="translate(0,0)"/>
<path d="" fill="#FFDD5A" transform="translate(0,0)"/>
<path d="" fill="#FFDD55" transform="translate(0,0)"/>
<path d="" fill="#FFDF5A" transform="translate(0,0)"/>
<path d="" fill="#FFDE5C" transform="translate(0,0)"/>
<path d="" fill="#FFDC59" transform="translate(0,0)"/>
<path d="" fill="#FFDB4E" transform="translate(0,0)"/>
<path d="" fill="#FFDC59" transform="translate(0,0)"/>
<path d="" fill="#FFD94F" transform="translate(0,0)"/>
<path d="" fill="#FFDE5A" transform="translate(0,0)"/>
<path d="" fill="#FEDC56" transform="translate(0,0)"/>
<path d="" fill="#FFDD59" transform="translate(0,0)"/>
<path d="" fill="#FFDB56" transform="translate(0,0)"/>
<path d="" fill="#FEDE5A" transform="translate(0,0)"/>
<path d="" fill="#FFDC5A" transform="translate(0,0)"/>
<path d="" fill="#FEDE59" transform="translate(0,0)"/>
<path d="" fill="#FFDC5A" transform="translate(0,0)"/>
<path d="" fill="#FFDD58" transform="translate(0,0)"/>
<path d="" fill="#FFDB56" transform="translate(0,0)"/>
<path d="" fill="#FEDD56" transform="translate(0,0)"/>
<path d="" fill="#FEDC55" transform="translate(0,0)"/>
<path d="" fill="#FFDD58" transform="translate(0,0)"/>
<path d="" fill="#FFDD4F" transform="translate(0,0)"/>
<path d="" fill="#FEDC4B" transform="translate(0,0)"/>
<path d="" fill="#FFDE5B" transform="translate(0,0)"/>
<path d="" fill="#FFDC58" transform="translate(0,0)"/>
<path d="" fill="#FFDA4E" transform="translate(0,0)"/>
<path d="" fill="#FFDC4D" transform="translate(0,0)"/>
<path d="" fill="#FEDE5B" transform="translate(0,0)"/>
<path d="" fill="#FFDC58" transform="translate(0,0)"/>
<path d="" fill="#FEDC56" transform="translate(0,0)"/>
<path d="" fill="#FFDD56" transform="translate(0,0)"/>
<path d="" fill="#FFDD59" transform="translate(0,0)"/>
<path d="" fill="#FFDF5B" transform="translate(0,0)"/>
<path d="" fill="#FEDE5A" transform="translate(0,0)"/>
<path d="" fill="#FFDE5B" transform="translate(0,0)"/>
<path d="" fill="#FFDD58" transform="translate(0,0)"/>
</svg>
